<svg width="224" height="74" viewBox="0 0 224 74" fill="none" xmlns="http://www.w3.org/2000/svg">
<g filter="url(#filter0_d)">
<path d="M100.019 42.909L97.8406 18.2881C97.6988 16.6674 97.2123 15.4379 96.3617 14.5872C95.511 13.7366 94.3548 13.3063 92.9072 13.3063C90.5657 13.3063 88.6006 13.8783 87.0087 14.9979C85.4076 16.1174 84.4472 17.609 84.1121 19.4663C84.0314 19.8966 83.9996 20.3586 83.9996 20.8572C83.9996 21.3583 84.0607 21.8863 84.1732 22.4486L89.0156 54.8472C89.2381 56.4777 89.8467 57.7458 90.849 58.6581C91.8536 59.5677 93.1101 60.027 94.6281 60.027H99.1479C100.637 60.027 102.045 59.5677 103.362 58.6777C104.68 57.7779 105.763 56.4972 106.616 54.8472L123.263 22.4486C123.505 21.9665 123.727 21.4683 123.911 20.957C124.091 20.4558 124.232 19.9572 124.316 19.4658C124.648 17.6081 124.223 16.117 123.038 14.9974C121.842 13.8778 120.079 13.3058 117.75 13.3058C116.29 13.3058 115.005 13.7361 113.868 14.5867C112.734 15.4372 111.803 16.667 111.072 18.2876L100.019 42.909Z" fill="white"/>
<path d="M143.753 59.4125C148.071 59.4125 151.199 59.2565 153.119 58.9466C155.04 58.6395 156.781 58.1037 158.347 57.3508C160.692 56.2716 162.612 54.7265 164.092 52.7181C165.575 50.7225 166.566 48.3543 167.067 45.6263C167.567 42.8352 167.389 40.5702 166.556 38.8212C165.711 37.07 164.165 35.7634 161.913 34.8878C163.999 33.9191 165.658 32.6734 166.888 31.1608C168.119 29.6479 168.911 27.8762 169.289 25.838C169.747 23.2633 169.518 21.0714 168.599 19.2598C167.672 17.4477 166.116 16.1189 163.937 15.2558C162.739 14.7928 161.299 14.463 159.628 14.2565C157.96 14.0504 155.28 13.9473 151.598 13.9473H140.489C137.087 13.9473 134.605 14.5865 133.04 15.8422C131.474 17.1077 130.403 19.3524 129.829 22.5642L124.694 51.0723C124.133 54.1806 124.402 56.3547 125.529 57.5779C126.656 58.8036 128.909 59.4127 132.309 59.4127L143.753 59.4125ZM141.321 40.3035H147.862C150.074 40.3035 151.597 40.634 152.419 41.2803C153.235 41.9393 153.504 43.0322 153.235 44.5546C152.963 46.0898 152.306 47.1917 151.262 47.8612C150.219 48.5408 148.612 48.8681 146.442 48.8681H139.779L141.321 40.3035ZM144.16 24.4892H148.144C151.285 24.4892 153.255 24.7461 154.048 25.2619C154.84 25.7776 155.112 26.7339 154.861 28.1131C154.622 29.4321 154.048 30.3578 153.14 30.9142C152.223 31.4703 150.771 31.737 148.791 31.737H142.854L144.16 24.4892Z" fill="white"/>
<path d="M189.573 25.4679L184.701 52.5573C184.305 54.7282 184.63 56.4073 185.674 57.5977C186.705 58.7877 188.367 59.3863 190.639 59.3863C192.926 59.3863 194.791 58.817 196.209 57.7072C197.63 56.5877 198.529 54.9474 198.915 52.8061L203.838 25.4674H211.844C213.87 25.4674 215.511 25.0079 216.748 24.067C217.982 23.1376 218.764 21.7766 219.087 19.997C219.441 18.017 219.18 16.5064 218.287 15.487C217.395 14.4677 215.916 13.947 213.848 13.947H183.757C181.682 13.947 180.01 14.4481 178.744 15.4381C177.465 16.4379 176.666 17.8777 176.331 19.7575C175.986 21.6372 176.26 23.0672 177.152 24.0284C178.044 24.9866 179.513 25.4682 181.569 25.4682L189.573 25.4679Z" fill="white"/>
<path d="M13.1273 57.4354C10.4262 57.6358 7.98179 57.7676 5.81113 57.6016C22.0985 53.7494 39.4372 45.2843 48.474 36.1768C58.2909 26.2836 55.1229 18.8457 41.9669 17.8361C46.2936 16.8119 50.5445 16.1152 54.546 15.817C73.6176 14.3944 79.8069 22.5879 68.3693 34.1156C56.9318 45.6434 32.1994 56.0154 13.1273 57.4354Z" fill="#FF0000"/>
<path d="M8.52005 46.5454C7.13161 46.6481 5.87761 46.6505 4.7605 46.562C13.1303 44.5898 22.0381 40.2483 26.6798 35.5696C31.7203 30.49 30.0874 26.6645 23.3261 26.1389C25.5481 25.6158 27.7331 25.2589 29.7914 25.1074C39.5938 24.3863 42.7763 28.6005 36.9025 34.5209C31.0307 40.4392 18.322 45.8243 8.52005 46.5454Z" fill="#FF0000"/>
</g>
<defs>
<filter id="filter0_d" x="-2" y="0" width="228" height="81.3333" filterUnits="userSpaceOnUse" color-interpolation-filters="sRGB">
<feFlood flood-opacity="0" result="BackgroundImageFix"/>
<feColorMatrix in="SourceAlpha" type="matrix" values="0 0 0 0 0 0 0 0 0 0 0 0 0 0 0 0 0 0 127 0"/>
<feOffset dy="4"/>
<feGaussianBlur stdDeviation="2"/>
<feColorMatrix type="matrix" values="0 0 0 0 0 0 0 0 0 0 0 0 0 0 0 0 0 0 0.25 0"/>
<feBlend mode="normal" in2="BackgroundImageFix" result="effect1_dropShadow"/>
<feBlend mode="normal" in="SourceGraphic" in2="effect1_dropShadow" result="shape"/>
</filter>
</defs>
</svg>
