<svg width="578" height="484" viewBox="0 0 578 484" fill="none" xmlns="http://www.w3.org/2000/svg">
<path opacity="0.95" d="M253.353 80.2307H373.152C382.617 80.2307 390.29 87.9163 390.29 97.3969V217.393C390.29 226.874 382.617 234.56 373.152 234.56H253.353C243.888 234.56 236.215 226.874 236.215 217.393V97.3969C236.215 87.9163 243.888 80.2307 253.353 80.2307Z" fill="url(#paint0_linear_35_313)"/>
<path d="M277.583 199.426H348.918V202.954H277.583V199.426Z" fill="#96BFE6"/>
<path d="M287.69 210.55H338.817V214.078H287.69V210.55Z" fill="#96BFE6"/>
<path opacity="0.95" d="M20.1903 133.757H190.678C201.829 133.757 210.869 142.811 210.869 153.981V361.455C210.869 372.625 201.829 381.679 190.678 381.679H20.1903C9.03943 381.679 -0.000152588 372.625 -0.000152588 361.455V153.981C-0.000152588 142.811 9.03943 133.757 20.1903 133.757Z" fill="url(#paint1_linear_35_313)"/>
<path d="M98.5337 280.016H115.257V283.118H98.5337V280.016Z" fill="#4598E6"/>
<path d="M81.4333 308.447H178.752V314.454H81.4333V308.447Z" fill="#96BFE6"/>
<path d="M100.055 337.285H178.752V343.291H100.055V337.285Z" fill="#96BFE6"/>
<path d="M132.617 322.866H178.752V328.873H132.617V322.866Z" fill="#96BFE6"/>
<path d="M55.9731 158.481V161.515H38.14V178.28H35.1108V158.481H55.9731ZM177.078 178.28H174.049V161.515H156.23V158.481H177.092L177.078 178.28ZM38.14 264.787V281.555H55.9731V284.589H35.1108V264.787H38.14ZM174.049 264.787H177.078V284.589H156.215V281.555H174.034L174.049 264.787Z" fill="#4598E6"/>
<path d="M44.5519 343.733C48.0804 343.734 51.5298 342.686 54.4637 340.722C57.3976 338.759 59.6841 335.968 61.034 332.702C62.3839 329.437 62.7365 325.844 62.0472 322.378C61.3579 318.911 59.6577 315.728 57.1616 313.23C54.6656 310.732 51.4859 309.031 48.0248 308.344C44.5637 307.656 40.9768 308.012 37.7178 309.367C34.4589 310.722 31.6743 313.014 29.7164 315.955C27.7585 318.895 26.7154 322.351 26.7188 325.885C26.7289 330.618 28.6114 335.154 31.954 338.5C35.2966 341.845 39.8267 343.727 44.5519 343.733ZM44.5519 311.464C47.3966 311.464 50.1776 312.309 52.5429 313.892C54.9082 315.475 56.7518 317.725 57.8404 320.357C58.929 322.99 59.2139 325.887 58.6589 328.681C58.1039 331.476 56.734 334.043 54.7225 336.058C52.711 338.073 50.1481 339.445 47.358 340.001C44.5679 340.557 41.6759 340.271 39.0476 339.181C36.4194 338.091 34.1731 336.244 32.5926 333.875C31.0122 331.506 30.1685 328.72 30.1685 325.871C30.1724 322.051 31.6891 318.389 34.3856 315.688C37.0822 312.987 40.7384 311.467 44.5519 311.464Z" fill="#4598E6"/>
<path d="M45.6914 332.902L53.7944 324.785L51.3524 322.339L45.6914 328.012L37.7548 320.06L35.3129 322.506L45.6914 332.902Z" fill="#4598E6"/>
<path opacity="0.95" d="M261.327 86.0035H365.18V175.255H261.327V86.0035Z" fill="url(#paint2_linear_35_313)"/>
<path d="M517.809 443.506C509.162 437.414 499.041 394.968 498.439 369.689C498.129 356.739 494.306 351.343 490.935 346.574C487.722 342.024 484.929 338.089 486.553 329.072C489.652 311.826 481.506 304.383 481.421 304.31L482.364 303.233C482.727 303.552 491.212 311.229 487.961 329.326C486.445 337.756 488.943 341.281 492.103 345.746C495.422 350.428 499.552 356.256 499.87 369.645C500.519 396.777 510.865 436.852 518.632 442.324L517.809 443.506Z" fill="url(#paint3_linear_35_313)"/>
<path d="M535.931 431.127C536.749 429.271 537.59 427.355 538.56 425.333C543.499 414.891 547.875 413.17 555.122 410.321C556.895 409.624 558.902 408.834 561.104 407.845C571.489 403.164 569.479 396.282 567.706 390.205C567.458 389.354 567.21 388.505 566.996 387.668C566.082 384.093 567.838 382.299 570.502 379.584C572.476 377.568 574.933 375.058 576.826 371.099C578.9 366.76 577.842 364.434 576.592 363.246C573.963 360.744 567.881 361.198 562.147 364.34C560.365 365.314 558.899 366.854 557.348 368.483C553.691 372.316 549.14 377.088 537.634 377.144C531.073 377.173 527.477 378.08 525.616 380.175C523.504 382.554 523.902 386.112 524.448 391.039C524.638 392.742 524.854 394.673 524.985 396.762C525.768 409.209 518.434 418.191 518.36 418.279C513.979 423.507 508.575 434.354 510.906 441.028C511.884 443.828 514.069 445.589 517.402 446.265C518.604 446.519 519.828 446.651 521.057 446.66C529.092 446.651 532.037 439.98 535.931 431.127ZM562.805 365.587C567.925 362.787 573.417 362.222 575.578 364.273C577.22 365.832 576.455 368.504 575.505 370.47C573.715 374.221 571.451 376.535 569.45 378.58C566.672 381.419 564.484 383.663 565.588 388.019C565.807 388.874 566.059 389.737 566.313 390.603C568.08 396.654 569.748 402.371 560.5 406.534C558.327 407.512 556.337 408.29 554.579 408.986C547.262 411.862 542.427 413.761 537.245 424.719C536.281 426.767 535.434 428.683 534.616 430.544C530.144 440.7 527.445 446.83 517.674 444.849C514.87 444.281 513.044 442.833 512.244 440.545C510.199 434.661 515.106 424.359 519.444 419.186C519.763 418.806 527.22 409.694 526.402 396.657C526.268 394.535 526.049 392.584 525.859 390.866C525.348 386.308 524.983 383.013 526.668 381.114C528.21 379.376 531.59 378.589 537.622 378.56C549.739 378.504 554.52 373.486 558.362 369.458C559.898 367.842 561.227 366.45 562.813 365.584L562.805 365.587Z" fill="url(#paint4_linear_35_313)"/>
<path d="M517.54 454.92L516.114 454.847C516.184 453.501 517.984 421.825 530.682 412.556C544.612 402.386 549.005 391.454 551.097 384.116C553.562 375.473 566.105 373.162 566.64 373.068L566.888 374.478C566.765 374.502 554.69 376.728 552.473 384.511C550.323 392.051 545.813 403.281 531.526 413.712C519.371 422.586 517.557 454.61 517.54 454.92Z" fill="url(#paint5_linear_35_313)"/>
<path d="M519.959 462.044C522.947 460.555 522.839 454.563 522.672 445.493C522.468 434.032 522.182 418.335 528.173 403.895C534.535 388.558 528.862 384.075 523.373 379.742C517.239 374.885 511.42 370.3 522.561 349.605C527.682 340.099 529.306 333.668 527.676 329.367C526.067 325.119 521.542 323.463 516.766 321.71C508.508 318.682 499.152 315.253 500.361 297.75C500.732 292.384 500.101 289.083 498.378 287.366C496.505 285.499 493.748 285.701 490.555 285.935C485.73 286.289 480.264 286.69 475.506 280.467C475.009 278.913 470.458 265.036 465.013 262.66C464.493 262.412 463.923 262.286 463.346 262.289C462.77 262.292 462.202 262.425 461.683 262.677C457.924 264.48 455.742 266.613 455.015 269.208C453.747 273.717 457.059 278.802 460.857 284.692C466.86 293.949 473.66 304.439 466.605 316.923C457.278 333.428 462.206 339.207 469.024 347.2C472.93 351.782 477.358 356.973 480.317 365.44C482.698 372.252 478.637 378.744 474.711 385.023C469.784 392.9 464.689 401.046 475.415 408.114C493.146 419.8 510.661 457.945 510.836 458.329L510.906 458.487L511.044 458.595C514.312 461.161 516.69 462.398 518.481 462.398C518.994 462.4 519.501 462.278 519.959 462.044ZM476.207 406.918C466.649 400.618 470.949 393.751 475.915 385.784C479.832 379.523 484.269 372.427 481.661 364.966C478.614 356.247 474.092 350.946 470.105 346.27C463.424 338.437 459.005 333.261 467.844 317.628C475.328 304.389 467.967 293.051 462.052 283.913C458.421 278.316 455.286 273.48 456.379 269.594C456.989 267.423 458.92 265.583 462.288 263.971C462.621 263.807 462.988 263.722 463.359 263.722C463.73 263.722 464.096 263.807 464.429 263.971C469.483 266.174 474.121 280.865 474.168 281.014L474.203 281.131L474.279 281.23C479.537 288.176 485.692 287.726 490.637 287.36C493.599 287.144 495.936 286.971 497.356 288.378C498.775 289.786 499.254 292.794 498.918 297.648C497.636 316.224 507.974 320.01 516.261 323.05C520.92 324.759 524.948 326.236 526.324 329.873C527.784 333.756 526.195 339.821 521.291 348.924C509.577 370.681 516.132 375.859 522.474 380.869C527.775 385.058 532.785 389.014 526.838 403.348C520.733 418.062 521.019 433.932 521.229 445.522C521.373 453.422 521.486 459.677 519.307 460.766C518.031 461.401 515.592 460.327 512.054 457.571C510.652 454.481 493.879 418.557 476.207 406.918Z" fill="url(#paint6_linear_35_313)"/>
<path d="M547.948 295.784C538.922 292.685 540.798 310.121 536.986 322.995C533.174 335.868 494.56 328.618 510.769 360.899C526.978 393.181 490.272 371.693 501.235 399.863C512.197 428.034 502.187 458.162 514.105 450.499C526.023 442.836 520.8 407.362 533.194 403.146C545.588 398.93 547.609 394.015 535.338 382.557C523.067 371.099 567.49 359.735 556.527 336.582C545.565 313.43 558.377 299.365 547.948 295.784Z" fill="url(#paint7_linear_35_313)"/>
<path d="M518.258 448.653C517.122 443.831 507.43 401.394 516.473 396.262C524.445 391.741 524.249 374.157 523.005 357.549C521.904 342.85 540.753 335.98 541.557 335.693L542.036 337.045C541.849 337.109 523.414 343.836 524.433 357.441C525.71 374.496 525.847 392.593 517.18 397.508C510.313 401.405 516.634 435.512 519.652 448.325L518.258 448.653Z" fill="white"/>
<path d="M484.207 433.543L497.092 482.508H525.888L538.773 433.543H484.207Z" fill="url(#paint8_linear_35_313)"/>
<path d="M484.207 433.543C484.207 433.543 512.574 438.877 512.574 482.508H525.888L538.773 433.543H484.207Z" fill="url(#paint9_linear_35_313)"/>
<path opacity="0.95" d="M121.969 23.0823H206.993C214.774 23.0823 221.081 29.4003 221.081 37.1939V111.09C221.081 118.884 214.774 125.202 206.993 125.202H121.969C114.188 125.202 107.881 118.884 107.881 111.09V37.1939C107.881 29.4003 114.188 23.0823 121.969 23.0823Z" fill="url(#paint10_linear_35_313)"/>
<path d="M160.422 105.885H169.398V107.55H160.422V105.885Z" fill="#4598E6"/>
<path d="M137.573 41.5622V43.189H128.001V52.189H126.374V41.5622H137.573ZM202.584 52.189H200.96V43.189H191.385V41.5622H202.584V52.189ZM128.001 98.6287V107.632H137.573V109.258H126.374V98.6287H128.001ZM200.96 98.6287H202.584V109.258H191.385V107.632H200.96V98.6287Z" fill="#4598E6"/>
<path d="M307.258 182.183H319.249V184.407H307.258V182.183Z" fill="#4598E6"/>
<path d="M277.314 96.2646V98.4385H264.526V110.461H262.341V96.2646H277.314ZM364.149 110.461H361.978V98.4385H349.19V96.2646H364.149V110.461ZM264.54 172.49V184.515H277.329V186.692H262.341V172.487L264.54 172.49ZM361.993 172.49H364.163V186.692H349.204V184.515H361.978L361.993 172.49Z" fill="#4598E6"/>
<path d="M41.7539 252.308H61.7573C63.0747 242.714 64.6784 231.762 64.6784 231.762C64.6784 231.762 65.4875 240.8 66.4719 252.308H146.509C147.239 241.959 148.119 234.217 148.437 234.059C148.896 233.828 151.752 243.009 154.121 252.308H175.793C170.219 228.26 159.823 189.676 153.812 187.353C145.259 184.059 110.37 173.289 110.37 173.289H90.4597C90.4597 173.289 55.0826 183.4 51.7906 194.393C49.1967 203.162 43.4247 232.049 41.7539 252.308Z" fill="#E65353"/>
<path d="M99.5233 108.606C99.5233 108.606 80.9336 111.532 83.7495 140.674C86.5654 169.816 102.988 167.422 104.083 167.393C105.179 167.364 120.555 167.923 121.753 132.352C121.767 132.352 122.293 106.049 99.5233 108.606Z" fill="#EEA987"/>
<path d="M90.8453 158.803C90.8453 158.803 91.3565 170.799 90.1968 173.379C89.0371 175.96 105.538 184.307 115.61 175.021C115.61 175.021 113.18 161.998 113.857 157.381C114.535 152.763 90.8453 158.803 90.8453 158.803Z" fill="#EEA987"/>
<path d="M83.4752 132.446C83.4752 132.446 81.4304 130.266 80.6943 132.472C79.9582 134.679 83.852 144.53 83.5979 144.972C83.5979 144.972 83.9689 145.826 84.4567 145.355C84.9445 144.884 83.4752 132.446 83.4752 132.446Z" fill="#EEA987"/>
<path d="M121.546 132.077C121.546 132.077 123.538 129.86 124.327 132.048C125.115 134.237 121.405 144.164 121.665 144.603C121.665 144.603 121.309 145.463 120.812 145.004C120.316 144.545 121.546 132.077 121.546 132.077Z" fill="#EEA987"/>
<path d="M83.4844 136.914L86.1455 140.478C86.1455 140.478 86.0724 132.663 86.4989 131.44C86.9254 130.217 87.5797 126.466 87.936 125.588C88.2924 124.71 103.9 120.321 117.687 126.866C117.687 126.866 117.079 132.487 118.4 132.987C119.72 133.488 119.074 142.137 119.074 142.137L121.262 139.664C121.262 139.664 124.613 117.255 123.786 114.914C122.959 112.573 120.322 98.5292 92.0401 106.871C92.0401 106.871 83.2215 105.001 81.4513 111.099C79.6812 117.196 83.4844 136.914 83.4844 136.914Z" fill="#D98B52"/>
<path d="M90.1966 173.388C90.1966 173.388 86.0019 174.283 103.555 191.134C103.555 191.134 116.004 177.338 115.601 175.041C115.198 172.744 90.1966 173.388 90.1966 173.388Z" fill="#EEA987"/>
<path d="M103.554 191.134L98.7639 199.338L84.5559 175.173L90.7106 170.872L103.554 191.134Z" fill="#B84343"/>
<path d="M103.555 191.134L115.181 172.607L121.771 176.849L109.955 199.338L103.555 191.134Z" fill="#B84343"/>
<path d="M107.16 242.459C107.016 245.192 106.952 248.545 106.943 252.308H107.604C107.604 248.56 107.674 245.216 107.817 242.492C108.895 221.937 103.923 196.93 103.891 191.066L103.248 191.195C103.28 197.056 108.237 222.002 107.16 242.459Z" fill="#B84343"/>
<path d="M112.117 163.964C112.117 163.964 107.7 168.645 101.461 167.393C95.2212 166.141 92.452 163.297 92.452 163.297C92.452 163.297 94.9145 169.482 102.127 170.05C109.339 170.617 112.117 163.964 112.117 163.964Z" fill="#C78D71"/>
<path d="M327.521 97.0897H327.562C327.983 96.9873 328.646 94.9743 328.777 94.5705C328.807 94.4593 328.871 94.2574 328.961 93.9853C329.484 92.3732 330.714 88.5958 330.226 87.1505C330.077 86.694 329.844 86.4307 329.531 86.3663C328.865 86.2259 328.103 87.0744 328.07 87.1124L328.053 87.13V87.1534C327.881 88.7421 327.033 96.6859 327.399 97.0487C327.433 97.0768 327.477 97.0914 327.521 97.0897ZM329.379 86.4892C329.42 86.4849 329.461 86.4849 329.502 86.4892C329.756 86.5419 329.952 86.7818 330.086 87.1709C330.545 88.5724 329.291 92.4375 328.818 93.9005C328.728 94.1931 328.663 94.3862 328.631 94.4857C328.339 95.4512 327.775 96.8264 327.53 96.8995C327.526 96.9016 327.522 96.9027 327.518 96.9027C327.514 96.9027 327.51 96.9016 327.507 96.8995C327.276 96.5835 327.799 90.7552 328.205 87.1563C328.304 87.0715 328.871 86.4892 329.379 86.4892Z" fill="#EEA886"/>
<path d="M313.702 65.4258C313.702 65.4258 303.478 64.352 299.78 74.2502C296.082 84.1485 292.621 87.3904 292.186 92.5897C290.433 113.624 280.624 108.866 283.381 120.988C286.139 133.11 288.055 134.948 288.055 134.948L311.5 130.342L335.248 130.421C335.248 130.421 325.956 125.772 328.024 115.874C330.092 105.976 335.248 89.7516 332.336 78.7151C329.423 67.6787 319.816 66.2684 313.702 65.4258Z" fill="#16202E"/>
<path d="M301.191 97.0897C301.239 97.0881 301.284 97.0682 301.317 97.0341C301.682 96.6713 300.835 88.7275 300.662 87.1388V87.1183L300.645 87.1007C300.613 87.0627 299.85 86.223 299.184 86.3546C298.872 86.419 298.638 86.6823 298.489 87.1388C298.013 88.5841 299.231 92.3614 299.754 93.9736C299.845 94.2662 299.909 94.4564 299.938 94.5588C300.069 94.9655 300.733 96.9785 301.153 97.0809L301.191 97.0897ZM300.511 87.1826C300.905 90.7932 301.439 96.6098 301.206 96.9288C301.203 96.9306 301.199 96.9315 301.196 96.9315C301.192 96.9315 301.188 96.9306 301.185 96.9288C300.94 96.8673 300.391 95.4804 300.081 94.512C300.052 94.4037 299.988 94.1989 299.897 93.9268C299.424 92.4639 298.171 88.5871 298.629 87.1973C298.764 86.7994 298.957 86.5682 299.214 86.5155C299.757 86.3897 300.414 87.0627 300.522 87.1826H300.511Z" fill="#EEA886"/>
<path d="M265.586 159.996H280.192C283.221 154.466 285.68 150.139 285.68 150.139C285.68 150.139 287.649 153.738 289.186 159.996H338.359C338.988 156.599 339.202 153.138 338.999 149.688C338.999 149.688 341.628 154.446 344.674 159.996H361.196C356.814 151.772 348.597 136.8 346.731 134.834C344.394 132.376 330.796 122.966 321.095 119.912C311.395 116.857 305.874 119.806 305.874 119.806C305.874 119.806 295.907 121.606 286.694 125.263C283.081 126.7 273.064 145.209 265.586 159.996Z" fill="#FAA146"/>
<path d="M312.353 71.2161C312.353 71.2161 298.799 73.1735 300.782 93.2129C302.766 113.252 314.727 111.664 315.528 111.646C316.328 111.628 327.528 112.064 328.497 87.6098C328.497 87.6098 328.941 69.5279 312.353 71.2161Z" fill="#8E4F3A"/>
<path d="M306.329 108.091C306.329 108.091 307.168 118.516 305.161 121.638C303.154 124.76 306.876 128.999 314.537 127.551C322.199 126.103 321.755 121.752 321.755 121.752C321.755 121.752 319.608 115.315 320.236 110.168C320.865 105.022 306.329 108.091 306.329 108.091Z" fill="#8E4F3A"/>
<path d="M313.901 78.4781C313.901 78.4781 307.571 85.1462 304.629 88.5227C301.688 91.8992 301.349 98.421 301.349 98.421C301.349 98.421 296.383 92.3585 298.466 85.2984C300.548 78.2382 305.441 64.5041 317.85 68.7262C330.259 72.9482 330.72 91.5071 329.265 100.724C329.265 100.724 323.683 80.3887 313.901 78.4781Z" fill="#16202E"/>
<path d="M301.571 120.719C301.571 120.719 310.971 144.565 316.684 148.708C316.684 148.708 324.186 124.388 323.663 120.827C323.663 120.827 312.344 116.377 301.571 120.719Z" fill="#8E4F3A"/>
<path d="M321.434 114.952C321.434 114.952 338.189 129.874 333.84 139.202C330.13 147.152 316.97 142.274 319.141 133.935C321.311 125.597 321.434 114.952 321.434 114.952Z" fill="#16202E"/>
<path d="M319.243 110.739C319.243 110.739 313.468 113.472 307.851 109.434C308.433 110.463 309.256 111.336 310.247 111.979C311.239 112.621 312.371 113.014 313.547 113.124C317.68 113.583 319.243 110.739 319.243 110.739Z" fill="#633029"/>
<path d="M170.529 55.5801C170.529 55.5801 176.079 76.5266 177.247 81.246C177.595 82.668 178.708 85.1257 180.122 87.9287C180.122 87.9492 180.142 87.9697 180.157 87.9931C180.423 88.5278 180.599 89.1033 180.677 89.696C180.901 91.4515 180.233 92.8179 181.392 94.8923L181.603 95.7701H192.6C191.315 91.9665 189.679 87.0919 188.382 83.1888C187.287 79.8855 186.422 77.258 186.194 76.4973C185.514 74.2239 183.019 66.8653 180.901 61.982C180.162 60.2791 177.314 58.5967 174.791 57.3825C172.53 56.2853 170.529 55.5801 170.529 55.5801Z" fill="#323657"/>
<path d="M177.887 25.6571C177.887 25.6571 181.392 2.93757 162.61 3.35597C143.827 3.77438 144.076 15.0098 144.409 26.1603C144.742 37.3109 151.942 36.4712 143.825 51.9813C135.707 67.4914 150.853 67.4885 150.853 67.4885L162.61 51.3083L177.887 25.6571Z" fill="#FCCCA2"/>
<path d="M164.664 5.5358C164.664 5.5358 177.385 7.54881 177.887 25.6571C178.39 43.7654 174.458 47.6188 163.317 43.8503C152.176 40.0817 148.668 21.1308 148.419 18.1961C148.171 15.2615 147.505 3.35601 164.664 5.5358Z" fill="#EEA886"/>
<path d="M142.32 68.5243C142.276 74.7535 149.427 89.6609 150.531 94.2721C150.66 94.8075 150.8 95.302 150.94 95.7672H185.66C185.841 93.6196 186.011 91.7851 186.095 90.7464C186.37 87.3436 189.814 80.0113 189.7 76.5968C189.58 73.1179 187.874 70.1159 185.491 66.403C184.752 65.2502 183.972 64.0798 183.198 62.9387C180.668 59.2229 178.144 55.8493 176.906 54.6877C176.117 53.9465 175.27 53.2703 174.373 52.666C173.565 52.0987 172.688 51.6357 171.765 51.2879L160.831 49.5323C160.831 49.5323 154.016 52.0076 150.093 52.9234C150.087 52.9176 142.437 54.0382 142.32 68.5243Z" fill="#E55353"/>
<path d="M174.364 52.6572L180.703 62.6608L186.545 71.8949C186.545 71.8451 186.142 70.4319 185.482 66.3971C185.353 65.6306 185.218 64.7635 185.076 63.796C185.032 63.5087 184.97 63.2244 184.892 62.9446C182.388 57.163 174.648 52.8035 174.376 52.6601L174.364 52.6572Z" fill="#E55353"/>
<path d="M156.169 35.6929C157.27 37.779 158.436 50.7261 158.436 50.7261C158.436 50.7261 173.996 56.6188 172.401 53.2863C171.68 51.7736 171.47 49.8103 171.455 48.1191C171.445 47.0681 171.503 46.0175 171.627 44.9738C171.668 44.6344 171.697 44.4384 171.697 44.4384C171.697 44.4384 155.065 33.6067 156.169 35.6929Z" fill="#EEA886"/>
<path d="M169.854 18.5325C169.854 18.5325 163.317 29.1857 157.381 33.3697C151.445 37.5537 154.46 40.9156 154.46 40.9156C154.46 40.9156 138.955 8.21879 153.695 5.95708C168.435 3.69537 177.475 3.52567 177.893 25.6571C177.887 25.6571 171.204 18.3599 169.854 18.5325Z" fill="#FCCCA2"/>
<path d="M162.753 43.6396C165.142 47.1682 171.452 48.1191 171.452 48.1191C171.442 47.0681 171.5 46.0175 171.624 44.9738C167.573 45.755 162.753 43.6396 162.753 43.6396Z" fill="#A77860"/>
<path d="M184.874 62.8773C184.874 62.8773 185.213 63.5766 185.49 66.3884L183.197 62.9241C183.197 62.9241 179.108 57.046 177.703 55.5187C176.686 54.4599 175.571 53.4999 174.373 52.6513C174.373 52.6513 182.426 56.534 184.874 62.8773Z" fill="#EBEEFF"/>
<path d="M153.911 71.6433C153.911 71.6433 143.924 67.7197 140.968 67.4914C140.968 67.4914 142.978 51.4283 152.786 53.1283C162.595 54.8282 153.911 71.6433 153.911 71.6433Z" fill="#E55353"/>
<path d="M171.758 51.2791C171.758 51.2791 179.09 62.5701 176.61 63.5678C174.13 64.5655 160.693 62.2512 154.994 51.5249C154.98 51.5161 163.521 47.1302 171.758 51.2791Z" fill="#EEA886"/>
<path d="M140.968 67.4914C141.476 76.3452 143.985 84.7542 146.053 92.4551C146.345 93.5699 146.638 94.6758 146.912 95.7614H167.246C167.295 92.7097 167.287 90.0149 167.193 87.7678C166.168 63.1904 158.392 50.2697 158.392 50.2697C158.392 50.2697 155.909 51.1035 148.752 53.1312C143.857 54.5181 142.008 60.759 141.333 64.5421C141.331 64.5567 141.331 64.5715 141.333 64.586C141.158 65.5471 141.036 66.517 140.968 67.4914Z" fill="#323657"/>
<path d="M171.765 51.2849C172.888 53.2509 173.897 55.2799 174.788 57.362C177.195 62.8919 180.204 71.652 180.458 81.3016C180.54 84.4001 181.153 89.4209 182.088 95.7613H186.145C186.473 91.5039 187.222 87.2895 188.38 83.18C188.935 81.2021 189.443 79.7275 189.718 78.7912C191.015 74.3819 186.875 68.5096 185.491 66.4088C184.106 64.3081 180.785 54.6409 171.765 51.2849Z" fill="#323657"/>
<path d="M134.492 95.7613H145.411C145.411 95.0503 145.653 93.8888 146.053 92.4551C148.037 85.392 153.908 71.6403 153.908 71.6403C153.908 71.6403 162.695 57.2625 154.37 53.5964C146.045 49.9303 142.461 60.1738 141.342 64.5451C141.34 64.5596 141.34 64.5744 141.342 64.589C141.056 65.6364 136.099 84.564 134.492 95.7613Z" fill="#323657"/>
<path d="M312.565 300.796C312.565 300.796 308.748 300.743 307.389 299.271C306.031 297.8 303.633 296.477 302.862 296.103C301.834 295.602 298.989 292.829 298.629 294.183C298.27 295.538 303.163 298.97 304.094 299.898C305.026 300.825 300.031 301.229 299.298 302.13C298.565 303.031 301.115 312.494 304.442 311.759C307.769 311.025 310.494 307.663 311.123 307.663C311.751 307.663 313.582 307.242 313.582 307.242L312.565 300.796Z" fill="#EEA886"/>
<path d="M300.005 301.744C300.005 301.744 290.074 304.781 289.665 305.641C289.256 306.501 289.533 307.133 290.48 306.893C291.426 306.653 300.201 304.289 300.201 304.289C300.201 304.289 289.349 310.235 288.858 310.829C288.566 311.177 289.048 312.42 289.574 312.347C290.1 312.274 301.276 307.142 301.276 307.142C301.276 307.142 291.151 312.701 290.9 313.377C290.678 313.962 291.359 315.024 292.145 314.673C292.93 314.322 302.684 309.805 302.684 309.805C302.684 309.805 295.629 314.433 295.74 315.194C295.808 315.659 296.176 316.748 297.952 315.487C299.728 314.226 304.282 311.794 304.282 311.794L300.005 301.744Z" fill="#EEA886"/>
<path d="M333.457 468.622C333.457 468.622 330.27 473.397 325.801 474.43C321.332 475.462 316.93 477.101 316.897 479.927C316.865 482.754 329.817 484.436 334.932 481.589C342.565 477.338 343.342 478.62 344.189 476.495C345.036 474.371 343.173 468.689 343.228 468.01C343.295 467.191 333.457 468.622 333.457 468.622Z" fill="#353A3D"/>
<path d="M333.954 466.266C333.954 466.266 333.37 468.575 333.457 468.622C333.545 468.669 343.529 469.862 343.228 468.013C342.983 466.512 342.644 464.88 342.644 464.88L333.954 466.266Z" fill="#81807E"/>
<path d="M396.158 468.306C396.158 468.306 393.885 472.873 390.003 474.43C385.852 476.092 382.522 478.005 382.598 480.755C382.674 483.506 392.746 486.297 400.072 481.016C404.702 477.677 406.168 477.663 406.913 475.559C407.658 473.455 405.622 467.996 405.651 467.334C405.683 466.521 396.158 468.306 396.158 468.306Z" fill="#353A3D"/>
<path d="M396.044 465.936C396.044 465.936 396.073 468.277 396.158 468.306C396.242 468.335 405.897 469.145 405.651 467.334C405.457 466.245 405.143 465.18 404.714 464.16L396.044 465.936Z" fill="#81807E"/>
<path d="M360.661 326.409C360.661 326.409 347.987 375.049 343.158 386.293C338.689 396.712 337.214 411.283 336.597 418.601C335.823 427.803 331.214 463.659 330.67 466.34C330.127 469.02 345.568 467.826 345.568 467.826C345.568 467.826 356.221 405.853 360.646 396.809C363.597 390.776 380.726 347.493 382.686 349.995C384.646 352.496 387.068 395.852 388.528 403.053C389.989 410.253 394.437 467.13 394.437 467.13C394.437 467.13 404.401 468.593 407.059 466.348C407.059 466.348 408.272 417.779 407.351 404.282C406.998 399.138 413.366 342.61 405.199 319.855C400.896 307.818 360.661 326.409 360.661 326.409Z" fill="#2D3133"/>
<path d="M431.263 291.529C431.263 292.085 430.215 294.309 428.538 297.51C426.093 292.606 424.156 288.577 423.54 287.097C421.478 282.216 410.845 271.031 410.845 271.031C410.846 271.039 410.846 271.046 410.845 271.054C410.845 271.054 410.845 271.086 410.845 271.101C410.838 271.133 410.829 271.164 410.819 271.195C410.819 271.215 410.819 271.236 410.819 271.256C410.819 271.277 410.819 271.285 410.819 271.3C410.235 273.459 406.685 286.959 406.554 293.61C406.411 300.848 404.509 314.243 404.509 314.243L402.289 314.553L397.376 315.247L396.792 315.329L395.363 315.531L382.338 317.365L377.72 318.018L377.095 318.105L374.466 318.477L367.163 319.504L365.303 319.764L363.909 319.96L361.984 320.232C361.932 320.162 360.112 317.666 360.392 312.122C360.571 308.544 361.003 301.82 360.822 295.582C360.822 295.55 360.822 295.517 360.822 295.485C360.822 295.406 360.822 295.33 360.822 295.251C360.82 295.225 360.82 295.199 360.822 295.172C360.708 291.743 360.407 288.495 359.767 286.029C359.361 284.425 359.059 282.797 358.862 281.154L358.835 280.929C358.8 280.636 358.771 280.344 358.745 280.075C358.485 277.478 358.462 274.863 358.675 272.263V272.277C358.543 272.57 357.591 276.054 356.338 280.364C354.232 287.647 351.282 297.267 350.026 297.729C348.2 298.405 318.609 307.183 312.218 308.081C311.479 308.187 311.05 308.184 311.009 308.055L310.921 307.762C310.144 305.196 309.078 300.84 308.906 300.137L308.882 300.038L310.027 299.696L342.223 290.04L356.943 247.527C357.249 247.281 360.866 245.529 363.506 244.271C366.197 242.986 369.442 241.102 372.38 239.49C373.882 238.668 375.302 237.919 376.525 237.354L376.712 237.269L380.086 235.727L380.963 235.642C383.79 235.373 392.574 234.548 395.518 234.375C395.761 234.375 395.965 234.352 396.12 234.349C396.275 234.346 396.357 234.349 396.412 234.349C396.786 234.372 398.594 235.004 400.975 235.911L401.246 236.017L401.582 236.142L402.21 236.385L403.519 236.9L403.984 237.082C408.748 238.978 414.207 241.315 415.501 242.249C416.357 242.863 419.024 247.902 422.117 254.131C426.102 266.914 431.152 286.485 431.31 291.31C431.26 291.386 431.263 291.459 431.263 291.529Z" fill="#DECBC4"/>
<path d="M361.923 320.262C361.923 320.262 360.944 321.432 360.661 326.406C360.661 326.406 400.951 321.698 405.21 319.843C405.21 319.843 405.377 314.363 404.474 314.267C403.481 314.167 361.923 320.262 361.923 320.262Z" fill="#495055"/>
<path d="M396.284 232.98C396.158 239.314 383.916 242.778 383.916 242.778C383.916 242.778 378.795 236.341 380.016 235.733C380.498 235.49 380.694 234.53 380.752 233.454C380.792 232.495 380.768 231.536 380.682 230.58C380.647 230.133 380.612 229.846 380.612 229.846C380.612 229.846 382.365 227.997 384.588 225.794C388.476 221.943 393.821 217.016 393.83 218.97C393.828 219.095 393.813 219.22 393.786 219.342C392.846 223.757 396.284 232.98 396.284 232.98Z" fill="#EEA886"/>
<path d="M395.267 315.241C395.267 315.241 396.143 320.8 396.225 322.245L398.089 321.871C398.089 321.871 397.575 315.996 397.274 315.01L395.267 315.241Z" fill="#353A3D"/>
<path d="M365.285 319.615C365.285 319.615 364.578 324.662 364.563 326.57L366.535 326.312C366.535 326.312 366.938 320.007 367.163 319.349L365.285 319.615Z" fill="#353A3D"/>
<path d="M391.569 223.699C391.543 223.734 391.026 224.512 390.138 225.63C388.259 227.997 384.725 231.888 380.752 233.451C380.791 232.492 380.768 231.533 380.682 230.577C380.273 230.568 379.866 230.519 379.467 230.431C380.272 229.076 381.161 227.772 382.128 226.528L384.588 225.805L391.569 223.699Z" fill="#A77860"/>
<path d="M393.917 219.055C392.86 221.364 391.855 223.037 391.581 223.699C391.2 224.409 390.718 225.059 390.149 225.63C388.131 227.807 384.38 230.68 380.694 230.577C380.285 230.568 379.878 230.519 379.479 230.431C377.989 230.106 376.233 229.413 375.263 227.505C367.628 212.528 373.157 200.277 373.157 200.277C373.157 200.277 394.043 194.364 397.309 200.66C399.59 205.09 396.418 213.634 393.917 219.055Z" fill="#EEA886"/>
<path d="M373.146 200.289C373.146 200.289 371.206 200.183 370.724 196.5C370.242 192.816 371.209 191.865 371.209 191.865C371.209 191.865 379.832 188.252 382.929 187.769C386.025 187.286 393.637 186.847 395.422 188.892C395.422 188.892 399.76 187.883 400.94 195.092C402.815 206.53 394.554 217.636 394.554 217.636C394.554 217.636 394.624 210.163 392.98 209.175C391.335 208.186 389.913 210.538 389.913 210.538L386.548 211.144C386.548 211.144 391.66 200.087 385.528 199.677C379.397 199.268 376.654 200.935 373.146 200.289Z" fill="#252E3B"/>
<path d="M389.992 207.557C390.313 204.265 396.257 203.007 395.857 206.459C395.457 209.912 392.533 213.224 391.183 213.107C389.834 212.99 389.764 210.067 389.992 207.557Z" fill="#EEA886"/>
<path d="M428.55 297.51C425.962 302.458 421.878 309.737 417.844 316.797C418.376 317.79 418.891 318.773 419.389 319.747C420.551 321.954 421.572 324.233 422.445 326.57C423.365 329.151 424.641 335.757 422.196 336.986L409.306 344.111L409.046 343.391C408.619 342.22 407.693 339.751 406.417 336.538C406.376 336.436 406.247 336.129 406.054 335.678C405.797 335.073 405.429 334.215 405.006 333.22C404.816 332.779 404.617 332.311 404.422 331.831L403.703 330.157C403.353 329.341 403.005 328.524 402.681 327.772C401.804 325.724 401.115 324.127 401.115 324.127L400.984 323.834C400.566 322.924 400.134 322.014 399.698 321.104C399.021 319.697 398.322 318.296 397.61 316.923L397.394 316.508C397.265 316.268 397.139 316.025 397.011 315.788L396.774 315.349L396.722 315.253L396.625 315.08C392.898 308.271 388.7 302.578 387.363 294.23C387.234 293.423 387.111 292.624 386.995 291.828C386.802 290.503 386.621 289.195 386.46 287.91C386.399 287.427 386.337 286.948 386.279 286.471C385.61 280.911 385.21 275.937 384.886 272.482C383.878 261.712 390.462 250.052 395.518 242.849C397.192 240.444 398.997 238.134 400.925 235.929L400.951 235.903L401.223 236.008L401.559 236.134L402.187 236.377L403.496 236.892L403.96 237.073C408.856 238.998 419.167 241.839 420.464 242.77C421.212 243.305 422.889 248.221 424.822 254.429C428.807 267.212 431.17 286.488 431.287 291.295C431.287 291.371 431.287 291.445 431.287 291.515C431.263 292.085 430.215 294.309 428.55 297.51ZM408.978 295.105C408.978 297.507 409.758 300.257 410.956 303.189C410.988 303.262 411.017 303.338 411.05 303.412C411.876 301.656 412.653 299.953 413.351 298.388C415.268 294.087 416.585 290.734 416.658 289.405C417.131 280.879 410.863 271.063 410.863 271.063C410.863 271.063 410.863 271.095 410.863 271.11L410.836 271.203C410.836 271.224 410.836 271.244 410.836 271.265C410.836 271.285 410.836 271.294 410.836 271.309C409.484 276.394 408.955 295.105 408.955 295.105H408.978Z" fill="#3C4145"/>
<path d="M384.474 327.237L421.212 343.622C422.21 344.066 423.343 344.095 424.363 343.702C425.383 343.31 426.205 342.529 426.651 341.53L436.708 318.895C437.151 317.895 437.18 316.76 436.788 315.739C436.397 314.717 435.617 313.893 434.619 313.447L397.881 297.062C396.883 296.618 395.749 296.588 394.729 296.981C393.71 297.373 392.887 298.155 392.442 299.154L382.385 321.789C382.165 322.284 382.044 322.818 382.03 323.359C382.016 323.901 382.108 324.44 382.302 324.946C382.496 325.452 382.788 325.915 383.16 326.308C383.533 326.701 383.979 327.017 384.474 327.237Z" fill="#B3A5A0"/>
<path d="M376.555 237.436C376.555 237.436 374.831 243.182 372.602 257.522C372.527 258.005 372.453 258.493 372.378 258.985L372.351 259.157C372.302 259.488 372.249 259.825 372.199 260.167L372.182 260.287C372.147 260.515 372.112 260.743 372.08 260.977C371.995 261.545 371.913 262.121 371.828 262.71C370.835 269.691 369.439 281.57 368.098 293.563C367.041 303.017 364.625 312.716 363.86 319.957C363.626 321.789 363.291 323.605 362.858 325.4C362.802 325.642 362.744 325.885 362.688 326.134C360.527 335.272 356.335 348.204 356.335 348.204L355.114 347.075L351.501 343.73C351.092 343.355 350.798 342.871 350.654 342.335C350.51 341.798 350.521 341.232 350.686 340.702C352.692 334.221 359.507 311.291 360.758 295.166C360.144 289.499 358.578 281.897 358.812 280.803C358.812 280.844 358.783 280.882 358.771 280.923C358.053 282.922 357.258 285.095 356.455 287.211C354.305 292.89 352.102 298.157 351.197 298.493C349.152 299.245 312.525 310.068 312.259 308.558C312.233 308.406 312.201 308.245 312.165 308.072C312.13 307.9 312.095 307.727 312.057 307.543C311.605 305.474 310.784 302.51 310.211 300.521C310.124 300.228 310.045 299.936 309.975 299.704L309.577 298.347L340.541 288.165L356.171 247.22C356.464 246.977 360.465 244.826 363.106 243.568C365.858 242.258 369.337 240.642 372.421 239.212L376.458 237.351L376.555 237.436Z" fill="#3C4145"/>
<path d="M397.525 251.629L391.569 254.994L394.113 257.595L387.336 294.239C385.955 285.651 385.327 277.494 384.859 272.491C383.299 255.842 399.891 237.061 400.925 235.917C401.722 236.21 402.584 236.552 403.472 236.906L397.525 251.629Z" fill="#51565C"/>
<path d="M376.642 237.275C376.642 237.275 374.416 244.554 371.822 262.73C370.829 269.711 369.433 281.593 368.092 293.583L366.705 259.266L369.544 256.185L367.02 253.028L372.418 239.223C373.893 238.542 375.281 237.901 376.455 237.363L376.642 237.275Z" fill="#51565C"/>
<path d="M401.255 236.046L396.289 232.988C396.289 232.988 396.152 235.701 383.921 242.787L387.394 252.586L401.255 236.046Z" fill="#F5E2D9"/>
<path d="M380.662 234.346C380.662 234.346 380.854 237.272 383.916 242.778L377.136 251.629L376.642 237.275L380.662 234.346Z" fill="#F5E2D9"/>
<path d="M383.933 242.775C383.933 242.775 385.248 248.042 384.775 249.505C384.775 249.505 381.886 250.555 379.809 249.242C379.809 249.253 381.281 245.567 383.933 242.775Z" fill="#FAA146"/>
<path d="M377.139 318.688C376.405 314.975 377.104 303.848 377.139 303.376L377.77 303.414C377.77 303.529 377.045 314.934 377.77 318.565L377.139 318.688Z" fill="#AD9F99"/>
<path d="M382.286 316.976C382.286 316.976 376.359 317.684 374.399 318.176L374.656 324.832L382.42 324.001L382.286 316.976Z" fill="#69737A"/>
<path d="M380.989 248.779C380.989 248.779 374.375 265.504 375.456 284.227C376.572 303.637 378.407 310.674 378.407 310.674L382.496 315.794L384.295 309.5C384.295 309.5 378.824 284.753 382.356 260.673C382.996 256.311 383.945 248.042 383.945 248.042L380.989 248.779Z" fill="#FAA146"/>
<path d="M400.858 327.767C400.858 327.767 399.438 330.611 398.018 331.082C396.599 331.553 394.531 333.867 394.531 333.867L404.524 339.134C404.524 339.134 407.182 333.923 407.302 330.608C407.421 327.293 400.858 327.767 400.858 327.767Z" fill="#EEA886"/>
<path d="M399.908 328.033L399.248 329.367C399.248 329.367 405.593 334.013 407.302 334.309L407.886 332.533L399.908 328.033Z" fill="#DECBC4"/>
<path d="M399.248 328.091C399.248 328.091 404.001 332.03 408.011 333.847L425.961 302.32L414.505 296.044C414.505 296.044 399.564 325.724 399.248 328.091Z" fill="#3C4145"/>
<path d="M358.993 272.342C358.771 276.833 358.803 280.827 358.803 280.827C358.803 280.85 358.803 280.97 358.803 281.172L358.777 280.947C358.058 282.945 357.264 285.119 356.46 287.234C356.284 284.955 356.225 282.668 356.282 280.382C356.604 267.801 360.556 261.182 360.556 261.182C359.636 263.374 359.2 268.084 358.993 272.342Z" fill="#2D3133"/>
<path d="M203.014 230.82C203.014 230.82 203.201 228.506 202.929 227.426C202.459 225.562 203.151 222.54 200.809 221.074C198.466 219.608 191.733 225.756 191.204 227.461C190.675 229.167 193.19 232.099 198.457 234.554C203.724 237.009 203.014 230.82 203.014 230.82Z" fill="#EEA886"/>
<path d="M201.524 221.683C199.899 219.279 198.143 216.966 196.266 214.754C193.638 211.685 189.937 208.238 189.157 208.902C187.974 209.894 191.327 212.373 193.731 215.594C195.942 218.561 195.005 218.35 195.005 218.35C195.005 218.35 195.273 218.394 192.227 215.635C188.952 212.671 185.31 209.622 184.661 210.146C183.855 210.793 183.811 210.942 184.822 212.215C184.08 211.609 183.808 211.729 183.522 212.016C182.061 213.499 186.174 218.613 187.813 220.644C186.545 219.09 185.444 218.09 185.128 219.582C184.766 221.288 190.93 228.254 192.896 230.961C195.025 233.907 201.524 221.683 201.524 221.683Z" fill="#EEA886"/>
<path d="M280.288 467.756C280.288 467.756 273.879 471.559 270.978 472.961C268.078 474.362 256.805 474.775 255.69 475.834C254.574 476.893 254.986 480.27 256.858 480.615C258.73 480.96 272.43 482.201 277.013 481.13C281.596 480.059 290.135 481.861 292.028 481.218C293.92 480.574 292.702 470.348 291.969 468.051C291.236 465.754 280.288 467.756 280.288 467.756Z" fill="#181929"/>
<path d="M279.756 463.575L280.288 467.756C280.288 467.756 288.855 469.359 291.452 468.048L290.809 463.706L279.756 463.575Z" fill="#22243B"/>
<path d="M245.399 320.774C245.489 323.667 246.018 329.949 246.628 336.547C246.766 338.01 246.921 339.494 247.052 340.957C247.905 349.834 248.77 358.044 248.77 358.044C249.85 365.11 252.082 377.378 254.577 386.656C255.298 389.333 256.037 391.762 256.779 393.742C257.503 395.671 258.24 397.177 258.932 398.079C264.242 404.873 276.414 465.081 276.414 465.081L293.029 464.956C293.029 464.956 289.375 424.178 285.703 413.84C281.614 402.295 274.486 386.738 276.254 375.605C277.361 368.618 278.786 346.378 278.786 346.378C278.786 346.378 280.177 321.388 273.651 303.075C272.009 298.522 245.399 320.774 245.399 320.774Z" fill="#292C47"/>
<path d="M233.594 469.318C233.594 469.318 227.232 473.192 224.349 474.637C221.466 476.083 210.197 476.621 209.095 477.695C207.994 478.769 208.441 482.136 210.314 482.461C212.186 482.786 225.903 483.86 230.469 482.733C235.035 481.607 243.596 483.318 245.483 482.64C247.37 481.961 246.027 471.764 245.267 469.473C244.508 467.182 233.594 469.318 233.594 469.318Z" fill="#181929"/>
<path d="M233.01 465.143L233.594 469.315C233.594 469.315 242.179 470.819 244.759 469.464L244.064 465.128L233.01 465.143Z" fill="#22243B"/>
<path d="M252.874 405.428C253.306 392.11 254.48 383.262 257.901 375.567C260.775 369.104 263.235 348.813 263.235 348.813C263.235 348.813 271.022 325.031 269.442 305.659C269.048 300.819 238.949 312.973 238.949 312.973C238.289 315.794 236.276 324.677 235.561 331.254C231.471 368.872 233.011 393.377 233.011 393.377C235.347 401.683 229.459 467.036 229.459 467.036H246.401C246.401 467.036 250.841 443.787 251.308 429.33C251.308 429.342 253.04 407.731 252.874 405.428Z" fill="#292C47"/>
<path d="M253.251 233.082C253.251 233.082 245.364 246.047 243.05 253.271C240.737 260.495 242.601 281.532 242.195 285.748C240.93 298.862 239.087 313.298 239.087 313.298L265.554 330.259C268.936 322.099 271.904 313.772 274.446 305.31C278.588 291.474 278.921 279.015 278.883 270.691C278.76 244.581 264.672 229.837 264.672 229.837L253.251 233.082Z" fill="#CFBEB6"/>
<path d="M243.526 198.317C243.526 198.317 238.099 204.133 239.632 205.661C240.897 206.925 235.911 212.721 235.201 213.695C234.491 214.669 237.415 216.285 237.897 217.159C238.379 218.034 238.096 227.157 240.605 228.093C243.114 229.03 255.795 228.041 259.829 225.577C263.863 223.114 270.345 208.9 269.889 202.076C269.433 195.253 253.069 188.173 243.526 198.317Z" fill="#EEA886"/>
<path d="M248.656 226.121C248.656 226.121 248.749 226.897 248.875 228.099C248.922 228.602 248.983 229.176 249.036 229.805C249.068 230.177 249.1 230.572 249.138 230.975C249.138 231.084 249.161 231.192 249.167 231.3C249.185 231.487 249.199 231.672 249.214 231.868C249.275 232.746 249.34 233.65 249.386 234.548C249.5 236.868 249.518 239.083 249.269 240.318C248.603 243.697 263.139 229.433 263.139 229.433C262.374 221.626 262.161 213.773 262.502 205.936C263.107 193.501 248.656 226.121 248.656 226.121Z" fill="#EEA886"/>
<path d="M242.413 199.592C242.413 199.592 239.846 193.527 247.762 189.317C257.08 184.36 266.962 196.804 268.274 197.538C269.585 198.273 275.541 204.988 269.711 213.891C262.352 225.124 262.741 224.746 262.741 224.746C262.741 224.746 262.005 216.46 262.052 214.86C262.139 211.934 254.486 211.591 254.486 211.591C254.486 211.591 257.629 207.401 254.136 205.52C250.642 203.639 246.552 199.18 242.413 199.592Z" fill="#3A3F47"/>
<path d="M258.506 210.532C259.064 209.748 261.108 206.284 263.737 209.324C266.366 212.364 259.315 218.049 258.731 217.993C258.146 217.938 253.817 217.13 258.506 210.532Z" fill="#EEA886"/>
<path d="M237.643 318.907C237.643 318.907 238.958 312.704 239.215 311.777L277.913 318.228L277.516 323.237C277.516 323.237 249.634 321.567 237.643 318.907Z" fill="#23263D"/>
<path d="M281.357 291.588C281.357 291.588 275.413 317.304 284.722 347.306C285.859 350.969 258.95 346.72 258.95 346.72L281.357 291.588Z" fill="#FAA146"/>
<path d="M247.175 344.854C247.175 344.854 266.287 349.055 271.656 347.154C271.656 347.154 279.467 318.691 282.193 289.806C282.403 287.574 282.584 285.338 282.727 283.118C284.246 259.614 278.275 235.768 264.666 229.84C264.283 230.098 245.115 247.024 245.481 262.516C245.506 263.566 245.521 264.617 245.527 265.671C245.527 267.575 245.527 269.474 245.486 271.391C245.364 277.283 244.999 283.161 244.479 288.87C244.429 289.455 244.371 290.061 244.312 290.649C244.219 291.609 244.121 292.562 244.02 293.51C243.884 294.77 243.742 296.021 243.594 297.261C240.497 323.112 247.175 344.854 247.175 344.854Z" fill="#FAA146"/>
<path d="M247.958 244.402C245.483 255.008 243.822 265.788 242.992 276.648C241.844 291.679 240.31 302.308 240.31 302.308L238.011 309.749L237.068 302.572C237.068 302.572 237.909 283.173 239.034 275.282C240.167 267.327 240.661 257.226 247.011 244.124L247.958 244.402Z" fill="#D44040"/>
<path d="M248.361 244.414C248.065 244.678 247.702 244.854 247.312 244.923C246.699 245.014 245.819 244.045 248.959 239.879L248.361 244.414Z" fill="#D44040"/>
<path d="M262.969 227.684C262.969 227.684 254.068 236.078 248.773 237.924L247.762 245.965L264.678 229.828L262.969 227.684Z" fill="#EDDAD3"/>
<path d="M256.992 260.187C260.498 258.938 275.082 251.849 271.203 243.574C267.324 235.3 257.328 239.7 249.804 243.068C241.931 246.579 223.347 257.405 221.875 256.404C220.403 255.404 213.988 246.181 212.82 244.115C211.652 242.05 204.641 228.936 203.981 227.947C203.321 226.958 193.141 235.554 193.141 235.554C193.141 235.554 211.444 268.114 216.369 273.298C221.294 278.483 256.992 260.187 256.992 260.187Z" fill="#FAA146"/>
<path d="M254.565 386.656C255.287 389.333 256.026 391.762 256.768 393.742L262.563 359.115C261.1 362.397 254.565 386.656 254.565 386.656Z" fill="#181929"/>
<path d="M245.486 271.382L262.256 257.662C257.813 260.047 246.897 265.039 245.527 265.662C245.542 267.566 245.527 269.477 245.486 271.382Z" fill="#8F5C28"/>
<path d="M248.875 228.099C248.922 228.602 248.983 229.176 249.036 229.805C249.068 230.177 249.1 230.572 249.138 230.975C254.688 230.604 258.991 226.168 259.253 225.899C256.993 227.695 248.875 228.099 248.875 228.099Z" fill="#A77860"/>
<g opacity="0.95">
<path opacity="0.95" d="M31.0949 100.495H22.2879L24.984 94.8982H33.7881L31.0949 100.495Z" fill="url(#paint11_linear_35_313)"/>
<path opacity="0.95" d="M35.2135 100.495H33.1162L35.8094 94.8982H37.9097L35.2135 100.495Z" fill="url(#paint12_linear_35_313)"/>
<path opacity="0.95" d="M65.6337 93.8273H29.982L31.165 91.0302H66.8167L65.6337 93.8273Z" fill="url(#paint13_linear_35_313)"/>
</g>
<path d="M257.103 0H270.563C271.018 0 271.387 0.369412 271.387 0.825102V3.73636C271.387 4.19205 271.018 4.56146 270.563 4.56146H257.103C256.648 4.56146 256.28 4.19205 256.28 3.73636V0.825102C256.28 0.369412 256.648 0 257.103 0Z" fill="url(#paint14_linear_35_313)"/>
<path d="M257.103 10.937H270.563C271.018 10.937 271.387 11.3064 271.387 11.7621V14.6733C271.387 15.129 271.018 15.4984 270.563 15.4984H257.103C256.648 15.4984 256.28 15.129 256.28 14.6733V11.7621C256.28 11.3064 256.648 10.937 257.103 10.937Z" fill="url(#paint15_linear_35_313)"/>
<path d="M257.103 21.871H270.563C271.018 21.871 271.387 22.2404 271.387 22.6961V25.6074C271.387 26.063 271.018 26.4325 270.563 26.4325H257.103C256.648 26.4325 256.28 26.063 256.28 25.6074V22.6961C256.28 22.2404 256.648 21.871 257.103 21.871Z" fill="url(#paint16_linear_35_313)"/>
<path d="M246.568 0H249.22C249.675 0 250.043 0.369412 250.043 0.825102V3.73636C250.043 4.19205 249.675 4.56146 249.22 4.56146H246.568C246.113 4.56146 245.744 4.19205 245.744 3.73636V0.825102C245.744 0.369412 246.113 0 246.568 0Z" fill="url(#paint17_linear_35_313)"/>
<path d="M246.568 10.937H249.22C249.675 10.937 250.043 11.3064 250.043 11.7621V14.6733C250.043 15.129 249.675 15.4984 249.22 15.4984H246.568C246.113 15.4984 245.744 15.129 245.744 14.6733V11.7621C245.744 11.3064 246.113 10.937 246.568 10.937Z" fill="url(#paint18_linear_35_313)"/>
<path d="M246.568 21.871H249.22C249.675 21.871 250.043 22.2404 250.043 22.6961V25.6074C250.043 26.063 249.675 26.4325 249.22 26.4325H246.568C246.113 26.4325 245.744 26.063 245.744 25.6074V22.6961C245.744 22.2404 246.113 21.871 246.568 21.871Z" fill="url(#paint19_linear_35_313)"/>
<path d="M314.418 263.172H298.612L303.449 253.121H319.255L314.418 263.172Z" fill="url(#paint20_linear_35_313)"/>
<path d="M321.811 263.172H318.046L322.883 253.121H326.648L321.811 263.172Z" fill="url(#paint21_linear_35_313)"/>
<defs>
<linearGradient id="paint0_linear_35_313" x1="302.249" y1="357.184" x2="314.32" y2="138.751" gradientUnits="userSpaceOnUse">
<stop stop-color="#D1D7E0"/>
<stop offset="1" stop-color="#EBEBFF"/>
</linearGradient>
<linearGradient id="paint1_linear_35_313" x1="-471115" y1="409490" x2="-471115" y2="218937" gradientUnits="userSpaceOnUse">
<stop stop-color="#D1D7E0"/>
<stop offset="1" stop-color="#EBEBFF"/>
</linearGradient>
<linearGradient id="paint2_linear_35_313" x1="-157876" y1="105093" x2="-157876" y2="54932.7" gradientUnits="userSpaceOnUse">
<stop stop-color="#D1D7E0"/>
<stop offset="1" stop-color="#EBEBFF"/>
</linearGradient>
<linearGradient id="paint3_linear_35_313" x1="-131950" y1="210483" x2="-127210" y2="210483" gradientUnits="userSpaceOnUse">
<stop offset="0.01" stop-color="#1A2257"/>
<stop offset="1" stop-color="#5E60F2"/>
</linearGradient>
<linearGradient id="paint4_linear_35_313" x1="-234716" y1="136697" x2="-219048" y2="136697" gradientUnits="userSpaceOnUse">
<stop offset="0.01" stop-color="#1A2257"/>
<stop offset="1" stop-color="#5E60F2"/>
</linearGradient>
<linearGradient id="paint5_linear_35_313" x1="-174706" y1="134380" x2="-165880" y2="134380" gradientUnits="userSpaceOnUse">
<stop offset="0.01" stop-color="#1A2257"/>
<stop offset="1" stop-color="#5E60F2"/>
</linearGradient>
<linearGradient id="paint6_linear_35_313" x1="-279196" y1="292545" x2="-259294" y2="292545" gradientUnits="userSpaceOnUse">
<stop offset="0.01" stop-color="#1A2257"/>
<stop offset="1" stop-color="#5E60F2"/>
</linearGradient>
<linearGradient id="paint7_linear_35_313" x1="-51709.2" y1="273102" x2="-12437.5" y2="228528" gradientUnits="userSpaceOnUse">
<stop offset="0.01" stop-color="#1A2257"/>
<stop offset="1" stop-color="#5E60F2"/>
</linearGradient>
<linearGradient id="paint8_linear_35_313" x1="534.482" y1="532.819" x2="512.215" y2="436.991" gradientUnits="userSpaceOnUse">
<stop stop-color="#C9C4C1"/>
<stop offset="1" stop-color="#FFF6DE"/>
</linearGradient>
<linearGradient id="paint9_linear_35_313" x1="-39415.5" y1="87966.3" x2="-49608.3" y2="87966.3" gradientUnits="userSpaceOnUse">
<stop stop-color="#C9C4C1"/>
<stop offset="1" stop-color="#FFF6DE"/>
</linearGradient>
<linearGradient id="paint10_linear_35_313" x1="-229917" y1="71649.5" x2="-229917" y2="39319.6" gradientUnits="userSpaceOnUse">
<stop stop-color="#D1D7E0"/>
<stop offset="1" stop-color="#EBEBFF"/>
</linearGradient>
<linearGradient id="paint11_linear_35_313" x1="-28491.6" y1="3207.78" x2="-28944.4" y2="3207.78" gradientUnits="userSpaceOnUse">
<stop stop-color="#D1D7E0"/>
<stop offset="1" stop-color="#EBEBFF"/>
</linearGradient>
<linearGradient id="paint12_linear_35_313" x1="-11784.3" y1="3207.78" x2="-11862.9" y2="3207.78" gradientUnits="userSpaceOnUse">
<stop stop-color="#D1D7E0"/>
<stop offset="1" stop-color="#EBEBFF"/>
</linearGradient>
<linearGradient id="paint13_linear_35_313" x1="-87134.1" y1="1596.32" x2="-91778.9" y2="1596.32" gradientUnits="userSpaceOnUse">
<stop stop-color="#D1D7E0"/>
<stop offset="1" stop-color="#EBEBFF"/>
</linearGradient>
<linearGradient id="paint14_linear_35_313" x1="-24913.5" y1="1049.36" x2="-25694.9" y2="1049.36" gradientUnits="userSpaceOnUse">
<stop stop-color="#D1D7E0"/>
<stop offset="1" stop-color="#EBEBFF"/>
</linearGradient>
<linearGradient id="paint15_linear_35_313" x1="-24913.5" y1="1230.76" x2="-25694.9" y2="1230.76" gradientUnits="userSpaceOnUse">
<stop stop-color="#D1D7E0"/>
<stop offset="1" stop-color="#EBEBFF"/>
</linearGradient>
<linearGradient id="paint16_linear_35_313" x1="-24913.5" y1="1412.2" x2="-25694.9" y2="1412.2" gradientUnits="userSpaceOnUse">
<stop stop-color="#D1D7E0"/>
<stop offset="1" stop-color="#EBEBFF"/>
</linearGradient>
<linearGradient id="paint17_linear_35_313" x1="-7231.62" y1="1049.36" x2="-7294.91" y2="1049.36" gradientUnits="userSpaceOnUse">
<stop stop-color="#D1D7E0"/>
<stop offset="1" stop-color="#EBEBFF"/>
</linearGradient>
<linearGradient id="paint18_linear_35_313" x1="-7231.62" y1="1230.76" x2="-7294.91" y2="1230.76" gradientUnits="userSpaceOnUse">
<stop stop-color="#D1D7E0"/>
<stop offset="1" stop-color="#EBEBFF"/>
</linearGradient>
<linearGradient id="paint19_linear_35_313" x1="-7231.62" y1="1412.2" x2="-7294.91" y2="1412.2" gradientUnits="userSpaceOnUse">
<stop stop-color="#D1D7E0"/>
<stop offset="1" stop-color="#EBEBFF"/>
</linearGradient>
<linearGradient id="paint20_linear_35_313" x1="-30710.6" y1="11354.1" x2="-32169.5" y2="11354.1" gradientUnits="userSpaceOnUse">
<stop stop-color="#D1D7E0"/>
<stop offset="1" stop-color="#EBEBFF"/>
</linearGradient>
<linearGradient id="paint21_linear_35_313" x1="-12386.9" y1="11354.1" x2="-12640.3" y2="11354.1" gradientUnits="userSpaceOnUse">
<stop stop-color="#D1D7E0"/>
<stop offset="1" stop-color="#EBEBFF"/>
</linearGradient>
</defs>
</svg>
