<svg width="48" height="29" viewBox="0 0 48 29" fill="none" xmlns="http://www.w3.org/2000/svg">
<path d="M5.70464 28.4856C3.86298 28.6223 2.19631 28.7121 0.716309 28.5989C11.8213 25.9724 23.6431 20.2008 29.8046 13.9911C36.498 7.24576 34.338 2.17443 25.368 1.4861C28.318 0.787763 31.2163 0.312763 33.9446 0.10943C46.948 -0.86057 51.168 4.72593 43.3696 12.5858C35.5713 20.4456 18.7083 27.5174 5.70464 28.4856Z" fill="#FF0000"/>
<path d="M2.56333 21.0606C1.61667 21.1306 0.761667 21.1323 0 21.072C5.70667 19.7273 11.7802 16.7671 14.945 13.5771C18.3817 10.1138 17.2683 7.50547 12.6583 7.14714C14.1733 6.79047 15.6632 6.54714 17.0665 6.44381C23.75 5.95214 25.9198 8.82547 21.915 12.8621C17.9115 16.8973 9.2465 20.569 2.56333 21.0606Z" fill="#FF0000"/>
</svg>
