<svg width="12" height="8" viewBox="0 0 12 8" fill="none" xmlns="http://www.w3.org/2000/svg">
<path d="M11.6411 0.231167C11.4369 0.0624024 11.1744 -0.018849 10.9106 0.00511375C10.6468 0.0290764 10.4031 0.156311 10.2327 0.3591L6.00012 5.43751L1.76746 0.359184C1.59755 0.155599 1.35372 0.0278505 1.08961 0.00404118C0.825512 -0.0197681 0.562768 0.0623121 0.359184 0.232225C0.155599 0.402138 0.0278505 0.645966 0.00404118 0.910069C-0.0197681 1.17417 0.0623122 1.43692 0.232225 1.6405L5.23251 7.64076C5.32631 7.75325 5.44369 7.84375 5.57633 7.90585C5.70898 7.96795 5.85366 8.00014 6.00012 8.00014C6.14659 8.00014 6.29127 7.96795 6.42391 7.90585C6.55656 7.84375 6.67394 7.75325 6.76774 7.64076L11.768 1.64042C11.9379 1.43662 12.0199 1.17375 11.9961 0.909527C11.9723 0.645301 11.8446 0.401322 11.6411 0.231167Z" fill="#2F9FFF"/>
</svg>
