<svg width="150" height="50" viewBox="0 0 150 50" fill="none" xmlns="http://www.w3.org/2000/svg">
<path d="M66.8309 29.2562L65.3459 12.4692C65.2493 11.3642 64.9176 10.5258 64.3376 9.94584C63.7576 9.36584 62.9693 9.07251 61.9823 9.07251C60.3858 9.07251 59.0459 9.46251 57.9606 10.2258C56.8689 10.9892 56.2141 12.0062 55.9856 13.2725C55.9306 13.5658 55.9089 13.8808 55.9089 14.2208C55.9089 14.5625 55.9506 14.9225 56.0273 15.3058L59.3289 37.3959C59.4806 38.5075 59.8956 39.3722 60.5789 39.9942C61.2639 40.6144 62.1206 40.9275 63.1556 40.9275H66.2373C67.2523 40.9275 68.2126 40.6144 69.1106 40.0075C70.0089 39.394 70.7473 38.5209 71.3293 37.3959L82.6794 15.3058C82.8443 14.9772 82.9959 14.6375 83.1209 14.2888C83.2439 13.9472 83.3404 13.6072 83.3973 13.2722C83.6239 12.0055 83.3339 10.9888 82.5258 10.2255C81.7103 9.46217 80.5086 9.07217 78.9206 9.07217C77.9253 9.07217 77.0489 9.36551 76.2738 9.94551C75.5003 10.5253 74.8656 11.3638 74.3673 12.4688L66.8309 29.2562Z" fill="#172531"/>
<path d="M96.6497 40.5085C99.5938 40.5085 101.727 40.4022 103.036 40.1908C104.345 39.9815 105.533 39.6162 106.6 39.1028C108.199 38.367 109.508 37.3135 110.517 35.9442C111.528 34.5835 112.204 32.9688 112.545 31.1088C112.887 29.2058 112.765 27.6615 112.197 26.469C111.621 25.275 110.567 24.3842 109.032 23.7872C110.454 23.1267 111.585 22.2773 112.424 21.246C113.263 20.2145 113.803 19.0065 114.061 17.6168C114.373 15.8613 114.217 14.3668 113.591 13.1317C112.958 11.8962 111.897 10.9902 110.411 10.4017C109.595 10.086 108.613 9.86116 107.474 9.72032C106.336 9.57982 104.509 9.50949 101.998 9.50949H94.4245C92.1047 9.50949 90.4125 9.94532 89.3453 10.8015C88.2778 11.6643 87.5472 13.1948 87.1558 15.3847L83.655 34.822C83.2722 36.9413 83.4558 38.4237 84.2245 39.2577C84.993 40.0933 86.529 40.5087 88.8468 40.5087L96.6497 40.5085ZM94.9918 27.4797H99.4515C100.96 27.4797 101.998 27.705 102.559 28.1457C103.115 28.595 103.298 29.3402 103.115 30.3782C102.93 31.4248 102.482 32.1762 101.769 32.6327C101.059 33.096 99.9625 33.3192 98.4835 33.3192H93.94L94.9918 27.4797ZM96.9272 16.6972H99.6433C101.785 16.6972 103.129 16.8723 103.669 17.224C104.209 17.5757 104.395 18.2277 104.223 19.168C104.06 20.0673 103.669 20.6985 103.05 21.0778C102.425 21.457 101.435 21.6388 100.085 21.6388H96.0368L96.9272 16.6972Z" fill="#172531"/>
<path d="M127.89 17.3645L124.569 35.8345C124.299 37.3147 124.52 38.4595 125.232 39.2712C125.935 40.0825 127.069 40.4907 128.617 40.4907C130.177 40.4907 131.449 40.1025 132.415 39.3458C133.384 38.5825 133.997 37.4642 134.26 36.0042L137.617 17.3642H143.075C144.457 17.3642 145.575 17.0508 146.419 16.4093C147.26 15.7757 147.794 14.8477 148.014 13.6343C148.255 12.2843 148.077 11.2543 147.469 10.5593C146.86 9.86434 145.852 9.50934 144.442 9.50934H123.925C122.51 9.50934 121.37 9.851 120.507 10.526C119.635 11.2077 119.09 12.1893 118.862 13.471C118.627 14.7527 118.814 15.7277 119.422 16.383C120.03 17.0363 121.032 17.3647 122.433 17.3647L127.89 17.3645Z" fill="#172531"/>
<path d="M7.58672 39.1605C5.74506 39.2972 4.07839 39.387 2.59839 39.2738C13.7034 36.6473 25.5252 30.8757 31.6867 24.666C38.3801 17.9207 36.2201 12.8493 27.2501 12.161C30.2001 11.4627 33.0984 10.9877 35.8267 10.7843C48.8301 9.81433 53.05 15.4008 45.2517 23.2607C37.4534 31.1205 20.5904 38.1923 7.58672 39.1605Z" fill="#FF0000"/>
<path d="M4.44541 31.7355C3.49875 31.8055 2.64375 31.8072 1.88208 31.7468C7.58875 30.4022 13.6622 27.442 16.8271 24.252C20.2637 20.7887 19.1504 18.1803 14.5404 17.822C16.0554 17.4653 17.5452 17.222 18.9486 17.1187C25.6321 16.627 27.8019 19.5003 23.7971 23.537C19.7936 27.5722 11.1286 31.2438 4.44541 31.7355Z" fill="#FF0000"/>
</svg>
