<svg width="48" height="29" viewBox="0 0 48 29" fill="none" xmlns="http://www.w3.org/2000/svg">
<path d="M5.70464 28.4856C3.86298 28.6223 2.19631 28.7121 0.716309 28.5989C11.8213 25.9724 23.6431 20.2008 29.8046 13.9911C36.498 7.24576 34.338 2.17443 25.368 1.4861C28.318 0.787763 31.2163 0.312763 33.9446 0.10943C46.948 -0.86057 51.168 4.72593 43.3696 12.5858C35.5713 20.4456 18.7083 27.5174 5.70464 28.4856Z" fill="#FF0000"/>
<path d="M2.56333 21.0605C1.61667 21.1305 0.761667 21.1322 0 21.0718C5.70667 19.7272 11.7802 16.767 14.945 13.577C18.3817 10.1137 17.2683 7.50535 12.6583 7.14702C14.1733 6.79035 15.6632 6.54702 17.0665 6.44369C23.75 5.95202 25.9198 8.82535 21.915 12.862C17.9115 16.8972 9.2465 20.5688 2.56333 21.0605Z" fill="#FF0000"/>
</svg>
