<svg width="191" height="191" viewBox="0 0 191 191" fill="none" xmlns="http://www.w3.org/2000/svg">
<circle cx="95.3619" cy="95.3619" r="68.5" transform="rotate(137.59 95.3619 95.3619)" stroke="#407BFF" stroke-width="2"/>
<rect x="79" y="92" width="104" height="83" fill="white"/>
<circle cx="86" cy="162" r="1" fill="#407BFF"/>
<circle cx="92" cy="162" r="1" fill="#407BFF"/>
<circle cx="98" cy="162" r="1" fill="#407BFF"/>
<path d="M73 94.3C73 88.5333 73.9667 84.0333 75.9 80.8C77.8667 77.5333 81.2333 75.9 86 75.9C90.7667 75.9 94.1167 77.5333 96.05 80.8C98.0167 84.0333 99 88.5333 99 94.3C99 100.133 98.0167 104.7 96.05 108C94.1167 111.267 90.7667 112.9 86 112.9C81.2333 112.9 77.8667 111.267 75.9 108C73.9667 104.7 73 100.133 73 94.3ZM93.4 94.3C93.4 91.6 93.2167 89.3167 92.85 87.45C92.5167 85.5833 91.8167 84.0667 90.75 82.9C89.6833 81.7 88.1 81.1 86 81.1C83.9 81.1 82.3167 81.7 81.25 82.9C80.1833 84.0667 79.4667 85.5833 79.1 87.45C78.7667 89.3167 78.6 91.6 78.6 94.3C78.6 97.1 78.7667 99.45 79.1 101.35C79.4333 103.25 80.1333 104.783 81.2 105.95C82.3 107.117 83.9 107.7 86 107.7C88.1 107.7 89.6833 107.117 90.75 105.95C91.85 104.783 92.5667 103.25 92.9 101.35C93.2333 99.45 93.4 97.1 93.4 94.3ZM104.281 81.75V76.55H114.681V113H108.931V81.75H104.281Z" fill="#407BFF"/>
<line x1="148" y1="99" x2="191" y2="99" stroke="#407BFF" stroke-width="2"/>
</svg>
