<svg width="191" height="191" viewBox="0 0 191 191" fill="none" xmlns="http://www.w3.org/2000/svg">
<circle cx="95.3619" cy="95.3619" r="68.5" transform="rotate(137.59 95.3619 95.3619)" stroke="#F98700" stroke-width="2"/>
<rect x="79" y="92" width="104" height="83" fill="white"/>
<circle cx="86" cy="162" r="1" fill="#F98700"/>
<circle cx="92" cy="162" r="1" fill="#F98700"/>
<circle cx="98" cy="162" r="1" fill="#F98700"/>
<path d="M67 94.3C67 88.5333 67.9667 84.0333 69.9 80.8C71.8667 77.5333 75.2333 75.9 80 75.9C84.7667 75.9 88.1167 77.5333 90.05 80.8C92.0167 84.0333 93 88.5333 93 94.3C93 100.133 92.0167 104.7 90.05 108C88.1167 111.267 84.7667 112.9 80 112.9C75.2333 112.9 71.8667 111.267 69.9 108C67.9667 104.7 67 100.133 67 94.3ZM87.4 94.3C87.4 91.6 87.2167 89.3167 86.85 87.45C86.5167 85.5833 85.8167 84.0667 84.75 82.9C83.6833 81.7 82.1 81.1 80 81.1C77.9 81.1 76.3167 81.7 75.25 82.9C74.1833 84.0667 73.4667 85.5833 73.1 87.45C72.7667 89.3167 72.6 91.6 72.6 94.3C72.6 97.1 72.7667 99.45 73.1 101.35C73.4333 103.25 74.1333 104.783 75.2 105.95C76.3 107.117 77.9 107.7 80 107.7C82.1 107.7 83.6833 107.117 84.75 105.95C85.85 104.783 86.5667 103.25 86.9 101.35C87.2333 99.45 87.4 97.1 87.4 94.3ZM98.9313 85.55C99.1313 82.45 100.315 80.0333 102.481 78.3C104.681 76.5667 107.481 75.7 110.881 75.7C113.215 75.7 115.231 76.1167 116.931 76.95C118.631 77.7833 119.915 78.9167 120.781 80.35C121.648 81.7833 122.081 83.4 122.081 85.2C122.081 87.2667 121.531 89.0333 120.431 90.5C119.331 91.9667 118.015 92.95 116.481 93.45V93.65C118.448 94.25 119.981 95.35 121.081 96.95C122.181 98.5167 122.731 100.533 122.731 103C122.731 104.967 122.281 106.717 121.381 108.25C120.481 109.783 119.148 111 117.381 111.9C115.615 112.767 113.498 113.2 111.031 113.2C107.431 113.2 104.465 112.283 102.131 110.45C99.8313 108.583 98.5979 105.917 98.4313 102.45H103.931C104.065 104.217 104.748 105.667 105.981 106.8C107.215 107.9 108.881 108.45 110.981 108.45C113.015 108.45 114.581 107.9 115.681 106.8C116.781 105.667 117.331 104.217 117.331 102.45C117.331 100.117 116.581 98.4667 115.081 97.5C113.615 96.5 111.348 96 108.281 96H106.981V91.3H108.331C111.031 91.2667 113.081 90.8167 114.481 89.95C115.915 89.0833 116.631 87.7167 116.631 85.85C116.631 84.25 116.115 82.9833 115.081 82.05C114.048 81.0833 112.581 80.6 110.681 80.6C108.815 80.6 107.365 81.0833 106.331 82.05C105.298 82.9833 104.681 84.15 104.481 85.55H98.9313Z" fill="#F98700"/>
<line x1="148" y1="99" x2="191" y2="99" stroke="#F98700" stroke-width="2"/>
</svg>
