<svg width="191" height="191" viewBox="0 0 191 191" fill="none" xmlns="http://www.w3.org/2000/svg">
<circle cx="95.3617" cy="95.3619" r="68.5" transform="rotate(137.59 95.3617 95.3619)" stroke="#00A49A" stroke-width="2"/>
<rect x="79" y="92" width="104" height="83" fill="white"/>
<circle cx="86" cy="162" r="1" fill="#00A49A"/>
<circle cx="92" cy="162" r="1" fill="#00A49A"/>
<circle cx="98" cy="162" r="1" fill="#00A49A"/>
<path d="M68 94.3C68 88.5333 68.9667 84.0333 70.9 80.8C72.8667 77.5333 76.2333 75.9 81 75.9C85.7667 75.9 89.1167 77.5333 91.05 80.8C93.0167 84.0333 94 88.5333 94 94.3C94 100.133 93.0167 104.7 91.05 108C89.1167 111.267 85.7667 112.9 81 112.9C76.2333 112.9 72.8667 111.267 70.9 108C68.9667 104.7 68 100.133 68 94.3ZM88.4 94.3C88.4 91.6 88.2167 89.3167 87.85 87.45C87.5167 85.5833 86.8167 84.0667 85.75 82.9C84.6833 81.7 83.1 81.1 81 81.1C78.9 81.1 77.3167 81.7 76.25 82.9C75.1833 84.0667 74.4667 85.5833 74.1 87.45C73.7667 89.3167 73.6 91.6 73.6 94.3C73.6 97.1 73.7667 99.45 74.1 101.35C74.4333 103.25 75.1333 104.783 76.2 105.95C77.3 107.117 78.9 107.7 81 107.7C83.1 107.7 84.6833 107.117 85.75 105.95C86.85 104.783 87.5667 103.25 87.9 101.35C88.2333 99.45 88.4 97.1 88.4 94.3ZM103.181 105.25C106.381 102.483 108.898 100.217 110.731 98.45C112.598 96.65 114.148 94.7833 115.381 92.85C116.615 90.9167 117.231 88.9833 117.231 87.05C117.231 85.05 116.748 83.4833 115.781 82.35C114.848 81.2167 113.365 80.65 111.331 80.65C109.365 80.65 107.831 81.2833 106.731 82.55C105.665 83.7833 105.098 85.45 105.031 87.55H99.5313C99.6313 83.75 100.765 80.85 102.931 78.85C105.131 76.8167 107.915 75.8 111.281 75.8C114.915 75.8 117.748 76.8 119.781 78.8C121.848 80.8 122.881 83.4667 122.881 86.8C122.881 89.2 122.265 91.5167 121.031 93.75C119.831 95.95 118.381 97.9333 116.681 99.7C115.015 101.433 112.881 103.45 110.281 105.75L108.031 107.75H123.881V112.5H99.5813V108.35L103.181 105.25Z" fill="#00A49A"/>
<line x1="148" y1="99" x2="191" y2="99" stroke="#00A49A" stroke-width="2"/>
</svg>
