<svg width="191" height="191" viewBox="0 0 191 191" fill="none" xmlns="http://www.w3.org/2000/svg">
<circle cx="95.3617" cy="95.3619" r="68.5" transform="rotate(137.59 95.3617 95.3619)" stroke="#464BB1" stroke-width="2"/>
<rect x="79" y="92" width="104" height="83" fill="white"/>
<circle cx="86" cy="162" r="1" fill="#464BB1"/>
<circle cx="92" cy="162" r="1" fill="#464BB1"/>
<circle cx="98" cy="162" r="1" fill="#464BB1"/>
<path d="M66 94.3C66 88.5333 66.9667 84.0333 68.9 80.8C70.8667 77.5333 74.2333 75.9 79 75.9C83.7667 75.9 87.1167 77.5333 89.05 80.8C91.0167 84.0333 92 88.5333 92 94.3C92 100.133 91.0167 104.7 89.05 108C87.1167 111.267 83.7667 112.9 79 112.9C74.2333 112.9 70.8667 111.267 68.9 108C66.9667 104.7 66 100.133 66 94.3ZM86.4 94.3C86.4 91.6 86.2167 89.3167 85.85 87.45C85.5167 85.5833 84.8167 84.0667 83.75 82.9C82.6833 81.7 81.1 81.1 79 81.1C76.9 81.1 75.3167 81.7 74.25 82.9C73.1833 84.0667 72.4667 85.5833 72.1 87.45C71.7667 89.3167 71.6 91.6 71.6 94.3C71.6 97.1 71.7667 99.45 72.1 101.35C72.4333 103.25 73.1333 104.783 74.2 105.95C75.3 107.117 76.9 107.7 79 107.7C81.1 107.7 82.6833 107.117 83.75 105.95C84.85 104.783 85.5667 103.25 85.9 101.35C86.2333 99.45 86.4 97.1 86.4 94.3ZM97.3313 105.4V101.1L114.131 77H121.031V100.45H125.681V105.4H121.031V113H115.431V105.4H97.3313ZM115.681 82.8L103.881 100.45H115.681V82.8Z" fill="#464BB1"/>
<line x1="148" y1="99" x2="191" y2="99" stroke="#464BB1" stroke-width="2"/>
</svg>
