<svg width="506" height="416" viewBox="0 0 506 416" fill="none" xmlns="http://www.w3.org/2000/svg">
<path d="M300.086 8.0995H266.07C264.962 8.12304 263.894 8.51649 263.036 9.2171C262.178 9.91772 261.58 10.8852 261.336 11.9652L261.109 13.0271C260.522 15.6618 259.065 18.0227 256.972 19.7305C254.88 21.4383 252.273 22.3938 249.572 22.4435H217.256C214.693 22.5006 212.212 21.5426 210.353 19.7785C208.494 18.0144 207.409 15.5874 207.335 13.0271V11.9652C207.309 10.916 206.868 9.92 206.108 9.19539C205.348 8.47078 204.332 8.07669 203.281 8.0995H169.265C163.678 8.19875 158.321 10.34 154.208 14.1181C150.094 17.8963 147.509 23.0495 146.942 28.603L119.644 340.885C119.355 343.496 119.627 346.139 120.441 348.637C121.255 351.135 122.592 353.431 124.363 355.372C126.135 357.313 128.3 358.855 130.715 359.895C133.129 360.935 135.738 361.449 138.367 361.403H269.146C274.734 361.3 280.091 359.156 284.204 355.376C288.317 351.595 290.902 346.44 291.469 340.885L318.824 28.603C319.11 25.9919 318.836 23.3497 318.021 20.8526C317.205 18.3554 315.866 16.0605 314.093 14.1206C312.321 12.1807 310.154 10.6404 307.739 9.60215C305.324 8.56395 302.715 8.0517 300.086 8.0995Z" fill="#407BFF"/>
<path opacity="0.7" d="M300.086 8.0995H266.07C264.962 8.12304 263.894 8.51649 263.036 9.2171C262.178 9.91772 261.58 10.8852 261.336 11.9652L261.109 13.0271C260.522 15.6618 259.065 18.0227 256.972 19.7305C254.88 21.4383 252.273 22.3938 249.572 22.4435H217.256C214.693 22.5006 212.212 21.5426 210.353 19.7785C208.494 18.0144 207.409 15.5874 207.335 13.0271V11.9652C207.309 10.916 206.868 9.92 206.108 9.19539C205.348 8.47078 204.332 8.07669 203.281 8.0995H169.265C163.678 8.19875 158.321 10.34 154.208 14.1181C150.094 17.8963 147.509 23.0495 146.942 28.603L119.644 340.885C119.355 343.496 119.627 346.139 120.441 348.637C121.255 351.135 122.592 353.431 124.363 355.372C126.135 357.313 128.3 358.855 130.715 359.895C133.129 360.935 135.738 361.449 138.367 361.403H269.146C274.734 361.3 280.091 359.156 284.204 355.376C288.317 351.595 290.902 346.44 291.469 340.885L318.824 28.603C319.11 25.9919 318.836 23.3497 318.021 20.8526C317.205 18.3554 315.866 16.0605 314.093 14.1206C312.321 12.1807 310.154 10.6404 307.739 9.60215C305.324 8.56395 302.715 8.0517 300.086 8.0995Z" fill="white"/>
<path d="M286.834 151.737H217.384C216.8 151.747 216.22 151.632 215.684 151.401C215.147 151.169 214.666 150.827 214.272 150.396C213.878 149.965 213.58 149.455 213.398 148.9C213.216 148.345 213.155 147.758 213.217 147.178L218.447 87.4374C218.572 86.2024 219.146 85.0561 220.06 84.2158C220.974 83.3754 222.165 82.8994 223.408 82.8779H292.858C293.443 82.8662 294.023 82.9795 294.561 83.21C295.098 83.4405 295.581 83.783 295.975 84.2146C296.369 84.6463 296.667 85.157 296.848 85.7128C297.029 86.2686 297.089 86.8565 297.025 87.4374L291.795 147.178C291.667 148.412 291.092 149.556 290.178 150.396C289.265 151.236 288.075 151.713 286.834 151.737Z" fill="white"/>
<path d="M263.731 338.535H147.509C146.056 338.562 144.615 338.279 143.281 337.705C141.946 337.132 140.75 336.281 139.771 335.209C138.792 334.137 138.053 332.869 137.603 331.489C137.153 330.109 137.003 328.649 137.162 327.207C137.477 324.139 138.905 321.293 141.177 319.206C143.449 317.119 146.407 315.936 149.493 315.879H265.716C267.168 315.852 268.609 316.135 269.944 316.708C271.278 317.282 272.475 318.133 273.454 319.205C274.433 320.277 275.172 321.545 275.622 322.925C276.071 324.305 276.222 325.764 276.062 327.207C275.751 330.275 274.323 333.123 272.051 335.211C269.778 337.299 266.818 338.481 263.731 338.535Z" fill="white"/>
<path d="M272.987 66.4524H166.36C165.542 66.477 164.729 66.3246 163.976 66.0058C163.223 65.6869 162.548 65.2091 161.998 64.6052C161.447 64.0012 161.034 63.2854 160.786 62.5068C160.538 61.7283 160.462 60.9054 160.563 60.0946L161.427 50.1827C161.607 48.4643 162.409 46.8708 163.683 45.7023C164.957 44.5339 166.615 43.8712 168.344 43.8391H274.971C275.785 43.8244 276.593 43.9829 277.341 44.3039C278.088 44.625 278.759 45.1012 279.309 45.7012C279.859 46.3011 280.274 47.011 280.528 47.7836C280.782 48.5563 280.869 49.3741 280.782 50.1827L279.903 60.0946C279.727 61.8156 278.926 63.4125 277.652 64.5839C276.378 65.7552 274.718 66.4199 272.987 66.4524Z" fill="white"/>
<path d="M294.672 49.8428C294.624 50.3225 294.4 50.7677 294.045 51.094C293.69 51.4202 293.227 51.6048 292.745 51.6128C292.518 51.6161 292.293 51.5713 292.085 51.4813C291.877 51.3914 291.691 51.2584 291.538 51.0911C291.385 50.9238 291.27 50.726 291.199 50.5108C291.129 50.2956 291.105 50.0679 291.129 49.8428C291.178 49.3645 291.401 48.9209 291.757 48.597C292.112 48.273 292.575 48.0915 293.056 48.087C293.282 48.0817 293.507 48.1246 293.715 48.2129C293.923 48.3012 294.11 48.4329 294.262 48.5991C294.415 48.7653 294.531 48.9623 294.602 49.1767C294.672 49.3912 294.696 49.6183 294.672 49.8428Z" fill="white"/>
<path d="M294.204 55.1387C294.159 55.6172 293.939 56.0622 293.586 56.3887C293.233 56.7152 292.772 56.9003 292.291 56.9087C292.064 56.9119 291.839 56.8671 291.631 56.7772C291.423 56.6873 291.237 56.5543 291.084 56.387C290.932 56.2197 290.816 56.0219 290.746 55.8067C290.675 55.5915 290.651 55.3638 290.675 55.1387C290.72 54.6602 290.94 54.2152 291.293 53.8887C291.646 53.5621 292.107 53.377 292.588 53.3687C292.815 53.3654 293.04 53.4102 293.248 53.5002C293.456 53.5901 293.642 53.7231 293.795 53.8904C293.948 54.0577 294.063 54.2555 294.134 54.4707C294.204 54.6858 294.228 54.9135 294.204 55.1387Z" fill="white"/>
<path d="M293.751 60.4203C293.702 60.9 293.479 61.3452 293.124 61.6715C292.768 61.9977 292.306 62.1823 291.823 62.1903C291.597 62.1936 291.372 62.1488 291.164 62.0588C290.956 61.9689 290.769 61.8359 290.617 61.6686C290.464 61.5013 290.348 61.3035 290.278 61.0883C290.207 60.8731 290.183 60.6454 290.207 60.4203C290.256 59.9406 290.479 59.4954 290.834 59.1692C291.19 58.8429 291.652 58.6583 292.135 58.6503C292.362 58.647 292.586 58.6918 292.794 58.7818C293.002 58.8717 293.189 59.0047 293.342 59.172C293.494 59.3393 293.61 59.5371 293.68 59.7523C293.751 59.9675 293.775 60.1952 293.751 60.4203Z" fill="white"/>
<path d="M278.202 250.29H148.472C147.888 250.302 147.307 250.189 146.769 249.958C146.232 249.728 145.75 249.385 145.355 248.954C144.961 248.522 144.663 248.011 144.482 247.456C144.301 246.9 144.241 246.312 144.305 245.731L150.343 177.551C150.468 176.316 151.042 175.17 151.956 174.329C152.871 173.489 154.062 173.013 155.304 172.992H284.992C285.575 172.982 286.154 173.097 286.69 173.328C287.226 173.56 287.706 173.902 288.099 174.334C288.492 174.765 288.789 175.275 288.969 175.83C289.149 176.385 289.209 176.971 289.144 177.551L283.177 245.731C283.052 246.968 282.476 248.117 281.559 248.957C280.642 249.798 279.447 250.272 278.202 250.29Z" fill="white"/>
<path d="M184.161 264.535H143.767C143.625 264.538 143.485 264.511 143.354 264.455C143.224 264.399 143.108 264.316 143.012 264.211C142.917 264.107 142.845 263.983 142.802 263.848C142.758 263.714 142.744 263.571 142.76 263.431C142.788 263.129 142.927 262.848 143.149 262.641C143.371 262.435 143.662 262.318 143.965 262.312H184.36C184.503 262.309 184.645 262.337 184.776 262.393C184.907 262.45 185.024 262.534 185.12 262.641C185.216 262.747 185.287 262.872 185.329 263.009C185.372 263.145 185.384 263.289 185.366 263.431C185.335 263.73 185.195 264.008 184.973 264.211C184.751 264.415 184.462 264.53 184.161 264.535Z" fill="white"/>
<path d="M234.647 264.535H191.29C191.148 264.54 191.006 264.514 190.874 264.459C190.742 264.405 190.623 264.322 190.527 264.217C190.43 264.112 190.357 263.988 190.312 263.852C190.268 263.716 190.254 263.573 190.27 263.431C190.298 263.129 190.436 262.848 190.658 262.641C190.881 262.435 191.171 262.318 191.475 262.312H234.846C234.989 262.309 235.131 262.337 235.262 262.393C235.393 262.45 235.51 262.534 235.606 262.641C235.702 262.747 235.773 262.872 235.815 263.009C235.858 263.145 235.87 263.289 235.852 263.431C235.821 263.73 235.681 264.008 235.459 264.211C235.237 264.415 234.948 264.53 234.647 264.535Z" fill="white"/>
<path d="M170.186 274.376H142.917C142.773 274.379 142.631 274.352 142.499 274.295C142.367 274.238 142.249 274.154 142.152 274.048C142.056 273.942 141.983 273.817 141.939 273.681C141.894 273.544 141.88 273.4 141.896 273.258C141.927 272.957 142.066 272.678 142.288 272.472C142.509 272.266 142.798 272.148 143.101 272.139H170.427C170.57 272.138 170.711 272.168 170.842 272.225C170.973 272.282 171.09 272.366 171.186 272.472C171.283 272.577 171.356 272.702 171.401 272.837C171.446 272.972 171.462 273.116 171.448 273.258C171.416 273.568 171.269 273.855 171.035 274.062C170.802 274.269 170.499 274.382 170.186 274.376Z" fill="white"/>
<path d="M222.118 274.376H177.358C177.215 274.379 177.072 274.352 176.94 274.295C176.808 274.238 176.69 274.154 176.594 274.048C176.497 273.943 176.424 273.817 176.38 273.681C176.336 273.544 176.321 273.4 176.337 273.258C176.369 272.955 176.51 272.673 176.734 272.467C176.959 272.261 177.251 272.144 177.556 272.139H222.302C222.446 272.136 222.588 272.164 222.72 272.22C222.852 272.277 222.97 272.361 223.066 272.467C223.163 272.573 223.236 272.698 223.28 272.835C223.324 272.971 223.339 273.115 223.323 273.258C223.295 273.56 223.156 273.841 222.934 274.047C222.712 274.253 222.421 274.371 222.118 274.376Z" fill="white"/>
<path d="M214.89 284.203H142.052C141.909 284.208 141.767 284.183 141.635 284.128C141.503 284.073 141.385 283.99 141.288 283.885C141.191 283.78 141.118 283.656 141.074 283.52C141.029 283.384 141.015 283.241 141.031 283.099C141.063 282.796 141.204 282.515 141.428 282.308C141.653 282.102 141.945 281.986 142.25 281.98H215.088C215.231 281.98 215.372 282.009 215.503 282.066C215.634 282.123 215.751 282.208 215.847 282.313C215.943 282.418 216.016 282.543 216.061 282.678C216.106 282.814 216.122 282.957 216.108 283.099C216.074 283.399 215.931 283.677 215.707 283.88C215.483 284.084 215.192 284.198 214.89 284.203Z" fill="white"/>
<path d="M226.88 284.203H222.075C221.933 284.208 221.79 284.183 221.659 284.128C221.527 284.073 221.408 283.99 221.311 283.885C221.215 283.78 221.141 283.656 221.097 283.52C221.053 283.384 221.038 283.241 221.055 283.099C221.083 282.797 221.221 282.516 221.443 282.31C221.666 282.103 221.956 281.986 222.26 281.98H227.079C227.222 281.977 227.364 282.005 227.495 282.061C227.626 282.118 227.743 282.202 227.839 282.309C227.935 282.415 228.006 282.54 228.048 282.677C228.091 282.813 228.103 282.957 228.085 283.099C228.054 283.398 227.914 283.676 227.692 283.879C227.47 284.083 227.181 284.198 226.88 284.203Z" fill="white"/>
<path d="M175.19 294.044H141.173C141.03 294.045 140.889 294.016 140.758 293.958C140.628 293.901 140.51 293.817 140.414 293.712C140.318 293.606 140.245 293.482 140.2 293.346C140.155 293.211 140.139 293.068 140.153 292.926C140.184 292.623 140.325 292.341 140.55 292.135C140.774 291.929 141.067 291.812 141.372 291.807H175.388C175.532 291.804 175.674 291.832 175.806 291.888C175.938 291.945 176.056 292.029 176.152 292.135C176.249 292.241 176.322 292.366 176.366 292.503C176.41 292.639 176.425 292.783 176.409 292.926C176.377 293.229 176.236 293.51 176.012 293.716C175.787 293.922 175.495 294.039 175.19 294.044Z" fill="white"/>
<path d="M224.669 294.044H182.319C182.176 294.045 182.035 294.016 181.904 293.958C181.773 293.901 181.656 293.817 181.56 293.712C181.464 293.606 181.391 293.482 181.346 293.346C181.301 293.211 181.284 293.068 181.298 292.926C181.329 292.623 181.471 292.341 181.695 292.135C181.92 291.929 182.212 291.812 182.517 291.807H224.853C224.997 291.804 225.139 291.832 225.271 291.888C225.403 291.945 225.521 292.029 225.618 292.135C225.714 292.241 225.787 292.366 225.832 292.503C225.876 292.639 225.89 292.783 225.874 292.926C225.843 293.226 225.704 293.506 225.482 293.712C225.261 293.917 224.972 294.036 224.669 294.044Z" fill="white"/>
<path d="M182.205 303.871H140.323C140.18 303.875 140.038 303.847 139.907 303.79C139.775 303.734 139.658 303.649 139.562 303.543C139.467 303.437 139.395 303.311 139.353 303.175C139.31 303.038 139.298 302.894 139.316 302.753C139.347 302.453 139.487 302.176 139.709 301.972C139.931 301.769 140.22 301.654 140.521 301.648H182.39C182.532 301.643 182.675 301.669 182.806 301.724C182.938 301.779 183.057 301.862 183.154 301.967C183.25 302.071 183.324 302.196 183.368 302.332C183.412 302.467 183.427 302.611 183.41 302.753C183.382 303.055 183.244 303.336 183.022 303.542C182.799 303.748 182.509 303.866 182.205 303.871Z" fill="white"/>
<path d="M223.053 303.871H189.321C189.178 303.875 189.036 303.847 188.904 303.79C188.773 303.734 188.656 303.649 188.56 303.543C188.465 303.437 188.393 303.311 188.351 303.175C188.308 303.038 188.296 302.894 188.314 302.753C188.345 302.453 188.485 302.176 188.707 301.972C188.929 301.769 189.218 301.654 189.519 301.648H223.252C223.395 301.643 223.537 301.669 223.669 301.724C223.8 301.779 223.919 301.862 224.016 301.967C224.113 302.071 224.186 302.196 224.23 302.332C224.274 302.467 224.289 302.611 224.272 302.753C224.241 303.056 224.1 303.337 223.875 303.543C223.651 303.749 223.358 303.866 223.053 303.871Z" fill="white"/>
<path d="M285.19 146.074C285.067 146.215 284.917 146.331 284.749 146.414C284.581 146.497 284.398 146.545 284.21 146.557C284.023 146.569 283.835 146.544 283.658 146.483C283.481 146.421 283.317 146.326 283.177 146.201L225.165 90.8925C224.901 90.6271 224.753 90.2683 224.753 89.8942C224.753 89.5201 224.901 89.1612 225.165 88.8959C225.288 88.7545 225.438 88.6389 225.607 88.5559C225.775 88.4729 225.958 88.424 226.145 88.4121C226.332 88.4003 226.52 88.4257 226.697 88.4869C226.875 88.548 227.038 88.6437 227.178 88.7685L285.19 144.077C285.454 144.342 285.602 144.701 285.602 145.075C285.602 145.449 285.454 145.808 285.19 146.074Z" fill="#407BFF"/>
<path d="M220.034 146.059C219.919 145.909 219.835 145.737 219.787 145.553C219.74 145.37 219.73 145.179 219.757 144.991C219.785 144.804 219.85 144.624 219.949 144.462C220.048 144.3 220.178 144.159 220.332 144.049L249.926 119.878C250.208 119.635 250.573 119.512 250.945 119.536C251.316 119.559 251.663 119.728 251.911 120.005C252.024 120.155 252.106 120.326 252.152 120.508C252.198 120.69 252.208 120.88 252.18 121.066C252.153 121.252 252.088 121.43 251.991 121.591C251.893 121.751 251.765 121.891 251.613 122.002L222.019 146.187C221.737 146.43 221.372 146.553 221 146.529C220.629 146.505 220.282 146.337 220.034 146.059Z" fill="#407BFF"/>
<path d="M258.274 114.809C258.161 114.658 258.079 114.487 258.033 114.305C257.987 114.123 257.977 113.934 258.005 113.748C258.032 113.562 258.097 113.384 258.194 113.223C258.292 113.062 258.42 112.923 258.572 112.812L288.223 88.5986C288.504 88.3554 288.87 88.2325 289.241 88.2563C289.613 88.2802 289.96 88.4489 290.207 88.726C290.321 88.8761 290.403 89.0471 290.449 89.2292C290.495 89.4113 290.505 89.6007 290.477 89.7866C290.45 89.9724 290.385 90.1508 290.288 90.3115C290.19 90.4722 290.062 90.6119 289.91 90.7225L260.259 114.936C259.977 115.179 259.612 115.302 259.241 115.278C258.869 115.254 258.522 115.086 258.274 114.809Z" fill="#407BFF"/>
<g opacity="0.7">
<path opacity="0.7" d="M285.19 146.074C285.067 146.215 284.917 146.331 284.749 146.414C284.581 146.497 284.398 146.545 284.21 146.557C284.023 146.569 283.835 146.544 283.658 146.483C283.481 146.421 283.317 146.326 283.177 146.201L225.165 90.8925C224.901 90.6271 224.753 90.2683 224.753 89.8942C224.753 89.5201 224.901 89.1612 225.165 88.8959C225.288 88.7545 225.438 88.6389 225.607 88.5559C225.775 88.4729 225.958 88.424 226.145 88.4121C226.332 88.4003 226.52 88.4257 226.697 88.4869C226.875 88.548 227.038 88.6437 227.178 88.7685L285.19 144.077C285.454 144.342 285.602 144.701 285.602 145.075C285.602 145.449 285.454 145.808 285.19 146.074Z" fill="white"/>
</g>
<g opacity="0.7">
<path opacity="0.7" d="M220.034 146.059C219.919 145.909 219.835 145.737 219.787 145.553C219.74 145.37 219.73 145.179 219.757 144.991C219.785 144.804 219.85 144.624 219.949 144.462C220.048 144.3 220.178 144.159 220.332 144.049L249.926 119.878C250.208 119.635 250.573 119.512 250.945 119.536C251.316 119.559 251.663 119.728 251.911 120.005C252.024 120.155 252.106 120.326 252.152 120.508C252.198 120.69 252.208 120.88 252.18 121.066C252.153 121.252 252.088 121.43 251.991 121.591C251.893 121.751 251.765 121.891 251.613 122.002L222.019 146.187C221.737 146.43 221.372 146.553 221 146.529C220.629 146.505 220.282 146.337 220.034 146.059Z" fill="white"/>
</g>
<g opacity="0.7">
<path opacity="0.7" d="M258.274 114.809C258.161 114.658 258.079 114.487 258.033 114.305C257.987 114.123 257.977 113.934 258.005 113.748C258.032 113.562 258.097 113.384 258.194 113.223C258.292 113.062 258.42 112.923 258.572 112.812L288.223 88.5986C288.504 88.3554 288.87 88.2325 289.241 88.2563C289.613 88.2802 289.96 88.4489 290.207 88.726C290.321 88.8761 290.403 89.0471 290.449 89.2292C290.495 89.4113 290.505 89.6007 290.477 89.7866C290.45 89.9724 290.385 90.1508 290.288 90.3115C290.19 90.4722 290.062 90.6119 289.91 90.7225L260.259 114.936C259.977 115.179 259.612 115.302 259.241 115.278C258.869 115.254 258.522 115.086 258.274 114.809Z" fill="white"/>
</g>
<path d="M120.211 1.30279H101.785C100.001 1.31028 98.292 2.02372 97.0329 3.28692C95.7738 4.55013 95.0669 6.26021 95.0669 8.04291V26.4508C95.0669 28.2384 95.7777 29.9527 97.0429 31.2168C98.3081 32.4808 100.024 33.1909 101.813 33.1909H120.239C122.028 33.1909 123.744 32.4808 125.01 31.2168C126.275 29.9527 126.986 28.2384 126.986 26.4508V8.04291C126.986 7.1554 126.81 6.27662 126.469 5.45702C126.129 4.63742 125.629 3.89314 125 3.26689C124.37 2.64064 123.623 2.14476 122.801 1.80771C121.979 1.47066 121.099 1.29906 120.211 1.30279ZM111.04 7.81635C113.804 7.81635 115.292 10.0678 115.292 12.829C115.292 15.5901 113.804 17.8416 111.04 17.8416C108.277 17.8416 106.788 15.6043 106.788 12.829C106.788 10.0536 108.262 7.81635 111.04 7.81635ZM122.11 26.6065H99.9567C99.8673 26.6068 99.7787 26.5894 99.6961 26.5553C99.6134 26.5213 99.5382 26.4714 99.4749 26.4083L100.892 22.5426C101.335 21.3236 102.142 20.2701 103.204 19.5253C104.267 18.7805 105.533 18.3805 106.831 18.3796H115.207C116.507 18.3796 117.776 18.7791 118.841 19.5238C119.906 20.2685 120.715 21.3224 121.16 22.5426L122.578 26.4083C122.517 26.4709 122.444 26.5207 122.364 26.5548C122.284 26.5888 122.197 26.6065 122.11 26.6065Z" fill="#407BFF"/>
<path opacity="0.7" d="M120.211 1.30279H101.785C100.001 1.31028 98.292 2.02372 97.0329 3.28692C95.7738 4.55013 95.0669 6.26021 95.0669 8.04291V26.4508C95.0669 28.2384 95.7777 29.9527 97.0429 31.2168C98.3081 32.4808 100.024 33.1909 101.813 33.1909H120.239C122.028 33.1909 123.744 32.4808 125.01 31.2168C126.275 29.9527 126.986 28.2384 126.986 26.4508V8.04291C126.986 7.1554 126.81 6.27662 126.469 5.45702C126.129 4.63742 125.629 3.89314 125 3.26689C124.37 2.64064 123.623 2.14476 122.801 1.80771C121.979 1.47066 121.099 1.29906 120.211 1.30279ZM111.04 7.81635C113.804 7.81635 115.292 10.0678 115.292 12.829C115.292 15.5901 113.804 17.8416 111.04 17.8416C108.277 17.8416 106.788 15.6043 106.788 12.829C106.788 10.0536 108.262 7.81635 111.04 7.81635ZM122.11 26.6065H99.9567C99.8673 26.6068 99.7787 26.5894 99.6961 26.5553C99.6134 26.5213 99.5382 26.4714 99.4749 26.4083L100.892 22.5426C101.335 21.3236 102.142 20.2701 103.204 19.5253C104.267 18.7805 105.533 18.3805 106.831 18.3796H115.207C116.507 18.3796 117.776 18.7791 118.841 19.5238C119.906 20.2685 120.715 21.3224 121.16 22.5426L122.578 26.4083C122.517 26.4709 122.444 26.5207 122.364 26.5548C122.284 26.5888 122.197 26.6065 122.11 26.6065Z" fill="white"/>
<path d="M54.8991 76.7467H40.9524C39.76 76.7449 38.5789 76.9779 37.4767 77.4325C36.3745 77.8871 35.3729 78.5543 34.529 79.396C33.6852 80.2377 33.0158 81.2374 32.559 82.3378C32.1023 83.4382 31.8672 84.6178 31.8672 85.8091V99.7424C31.8672 102.15 32.8244 104.458 34.5282 106.16C36.232 107.863 38.5428 108.819 40.9524 108.819H54.8991C56.0915 108.819 57.2722 108.584 58.3737 108.128C59.4752 107.671 60.4758 107.003 61.3183 106.16C62.1608 105.317 62.8287 104.316 63.2837 103.215C63.7387 102.114 63.972 100.934 63.9701 99.7424V85.8091C63.972 84.6185 63.7386 83.4392 63.2834 82.3389C62.8282 81.2385 62.1602 80.2387 61.3175 79.3969C60.4748 78.555 59.474 77.8875 58.3726 77.4328C57.2713 76.978 56.0909 76.7449 54.8991 76.7467ZM47.9257 100.38C47.9257 100.38 42.2563 94.1634 42.2563 90.9916C42.2563 89.4725 42.8604 88.0156 43.9356 86.9415C45.0107 85.8673 46.469 85.2639 47.9895 85.2639C49.5101 85.2639 50.9683 85.8673 52.0435 86.9415C53.1187 88.0156 53.7227 89.4725 53.7227 90.9916C53.6518 94.1634 47.9257 100.38 47.9257 100.38Z" fill="#407BFF"/>
<path d="M47.9258 88.3861C47.406 88.3833 46.8971 88.535 46.4637 88.8217C46.0303 89.1085 45.6921 89.5175 45.4919 89.9967C45.2916 90.4759 45.2385 91.0038 45.3392 91.5133C45.44 92.0228 45.69 92.4908 46.0575 92.858C46.4251 93.2252 46.8936 93.475 47.4036 93.5756C47.9135 93.6763 48.4419 93.6232 48.9216 93.4232C49.4013 93.2231 49.8107 92.8852 50.0977 92.4522C50.3848 92.0193 50.5365 91.5109 50.5337 90.9916C50.5337 90.3006 50.2589 89.6379 49.7699 89.1493C49.2808 88.6606 48.6174 88.3861 47.9258 88.3861Z" fill="#407BFF"/>
<g opacity="0.7">
<path opacity="0.7" d="M54.8991 76.7467H40.9524C39.76 76.7449 38.5789 76.9779 37.4767 77.4325C36.3745 77.8871 35.3729 78.5543 34.529 79.396C33.6852 80.2377 33.0158 81.2374 32.559 82.3378C32.1023 83.4382 31.8672 84.6178 31.8672 85.8091V99.7424C31.8672 102.15 32.8244 104.458 34.5282 106.16C36.232 107.863 38.5428 108.819 40.9524 108.819H54.8991C56.0915 108.819 57.2722 108.584 58.3737 108.128C59.4752 107.671 60.4758 107.003 61.3183 106.16C62.1608 105.317 62.8287 104.316 63.2837 103.215C63.7387 102.114 63.972 100.934 63.9701 99.7424V85.8091C63.972 84.6185 63.7386 83.4392 63.2834 82.3389C62.8282 81.2385 62.1602 80.2387 61.3175 79.3969C60.4748 78.555 59.474 77.8875 58.3726 77.4328C57.2713 76.978 56.0909 76.7449 54.8991 76.7467ZM47.9257 100.38C47.9257 100.38 42.2563 94.1634 42.2563 90.9916C42.2563 89.4725 42.8604 88.0156 43.9356 86.9415C45.0107 85.8673 46.469 85.2639 47.9895 85.2639C49.5101 85.2639 50.9683 85.8673 52.0435 86.9415C53.1187 88.0156 53.7227 89.4725 53.7227 90.9916C53.6518 94.1634 47.9257 100.38 47.9257 100.38Z" fill="white"/>
<path opacity="0.7" d="M47.9258 88.3861C47.406 88.3833 46.8971 88.535 46.4637 88.8217C46.0303 89.1085 45.6921 89.5175 45.4919 89.9967C45.2916 90.4759 45.2385 91.0038 45.3392 91.5133C45.44 92.0228 45.69 92.4908 46.0575 92.858C46.4251 93.2252 46.8936 93.475 47.4036 93.5756C47.9135 93.6763 48.4419 93.6232 48.9216 93.4232C49.4013 93.2231 49.8107 92.8852 50.0977 92.4522C50.3848 92.0193 50.5365 91.5109 50.5337 90.9916C50.5337 90.3006 50.2589 89.6379 49.7699 89.1493C49.2808 88.6606 48.6174 88.3861 47.9258 88.3861Z" fill="white"/>
</g>
<path d="M361.103 37.2548L370.444 31.2227L361.103 25.1764V37.2548Z" fill="#407BFF"/>
<path d="M373.136 14.7547H355.335C353.323 14.7547 351.395 15.5528 349.973 16.9735C348.551 18.3942 347.752 20.321 347.752 22.3302V40.115C347.755 42.123 348.556 44.0477 349.977 45.4676C351.398 46.8875 353.325 47.6868 355.335 47.6906H373.136C375.148 47.6906 377.076 46.8924 378.498 45.4717C379.92 44.0511 380.719 42.1242 380.719 40.115V22.3302C380.721 21.3348 380.526 20.3489 380.146 19.429C379.765 18.509 379.207 17.6731 378.502 16.9693C377.798 16.2655 376.961 15.7076 376.04 15.3275C375.12 14.9475 374.133 14.7528 373.136 14.7547ZM364.235 43.0744C361.889 43.0744 359.594 42.379 357.643 41.0761C355.692 39.7731 354.171 37.9213 353.274 35.7548C352.376 33.5884 352.142 31.2047 352.601 28.9052C353.06 26.6058 354.191 24.494 355.852 22.8371C357.512 21.1801 359.628 20.0525 361.93 19.5968C364.232 19.1411 366.618 19.3778 368.785 20.277C370.953 21.1762 372.804 22.6975 374.106 24.6484C375.408 26.5993 376.101 28.8921 376.099 31.2368C376.097 32.7913 375.788 34.3303 375.191 35.7658C374.594 37.2013 373.72 38.5052 372.618 39.6031C371.517 40.701 370.209 41.5714 368.771 42.1646C367.333 42.7578 365.792 43.0622 364.235 43.0603V43.0744Z" fill="#407BFF"/>
<g opacity="0.7">
<path opacity="0.7" d="M361.103 37.2547L370.443 31.2226L361.103 25.1763V37.2547Z" fill="white"/>
<path opacity="0.7" d="M373.136 14.7547H355.335C353.323 14.7547 351.395 15.5528 349.973 16.9735C348.551 18.3942 347.752 20.321 347.752 22.3302V40.115C347.755 42.123 348.556 44.0477 349.977 45.4676C351.398 46.8875 353.325 47.6868 355.335 47.6906H373.136C375.148 47.6906 377.076 46.8924 378.498 45.4717C379.92 44.0511 380.719 42.1242 380.719 40.115V22.3302C380.721 21.3348 380.526 20.3489 380.146 19.429C379.765 18.509 379.207 17.6731 378.502 16.9693C377.798 16.2655 376.961 15.7076 376.04 15.3275C375.12 14.9475 374.133 14.7528 373.136 14.7547ZM364.235 43.0744C361.889 43.0744 359.594 42.379 357.643 41.0761C355.692 39.7731 354.171 37.9213 353.274 35.7548C352.376 33.5884 352.142 31.2047 352.601 28.9052C353.06 26.6058 354.191 24.494 355.852 22.8371C357.512 21.1801 359.628 20.0525 361.93 19.5968C364.232 19.1411 366.618 19.3778 368.785 20.277C370.953 21.1762 372.804 22.6975 374.106 24.6484C375.408 26.5993 376.101 28.8921 376.099 31.2368C376.097 32.7913 375.788 34.3303 375.191 35.7658C374.594 37.2013 373.72 38.5052 372.618 39.6031C371.517 40.701 370.209 41.5714 368.771 42.1646C367.333 42.7578 365.792 43.0622 364.235 43.0603V43.0744Z" fill="white"/>
</g>
<path d="M390.613 82.963C390.613 82.5948 390.613 82.2267 390.613 81.8727L392.753 80.6832C392.597 79.6708 392.331 78.6784 391.959 77.7238H389.521C389.211 77.0591 388.841 76.424 388.416 75.8264L389.677 73.7449C389.031 72.9459 388.304 72.2152 387.509 71.5643L385.411 72.8245C384.815 72.4071 384.185 72.0423 383.526 71.7342V69.2845C382.567 68.9226 381.575 68.657 380.564 68.4916L379.373 70.6297C379.019 70.6297 378.65 70.6297 378.282 70.6297C377.913 70.6297 377.559 70.6297 377.19 70.6297L376 68.4916C374.989 68.6605 373.997 68.9261 373.037 69.2845V71.7342C372.377 72.0391 371.746 72.4041 371.152 72.8245L369.055 71.5643C368.251 72.2112 367.52 72.9422 366.872 73.7449L368.133 75.8264C367.718 76.4276 367.353 77.0623 367.042 77.7238H364.604C364.234 78.6801 363.964 79.6718 363.796 80.6832L365.937 81.8727C365.937 82.2267 365.937 82.5948 365.937 82.963C365.937 83.3311 365.937 83.6993 365.937 84.0533L363.796 85.2427C363.962 86.2546 364.233 87.2465 364.604 88.2022H367.042C367.353 88.8637 367.718 89.4984 368.133 90.0996L366.872 92.1952C367.524 92.99 368.255 93.716 369.055 94.3617L371.152 93.1015C371.743 93.527 372.374 93.8923 373.037 94.1918V96.6414C373.995 97.0064 374.988 97.2721 376 97.4344L377.19 95.2963C377.559 95.2963 377.913 95.2963 378.282 95.2963C378.65 95.2963 379.019 95.2963 379.373 95.2963L380.564 97.4344C381.576 97.2757 382.569 97.0099 383.526 96.6414V94.1918C384.188 93.8892 384.819 93.5241 385.411 93.1015L387.509 94.3617C388.301 93.7121 389.027 92.9865 389.677 92.1952L388.416 90.0996C388.841 89.502 389.211 88.8669 389.521 88.2022H391.959C392.333 87.2481 392.599 86.2555 392.753 85.2427L390.613 84.0533C390.584 83.6568 390.613 83.3311 390.613 82.963ZM378.253 91.3456C376.594 91.3456 374.972 90.854 373.592 89.9329C372.212 89.0118 371.136 87.7026 370.501 86.1709C369.866 84.6392 369.7 82.9537 370.024 81.3276C370.348 79.7016 371.147 78.2079 372.32 77.0356C373.494 75.8632 374.989 75.0649 376.616 74.7414C378.244 74.418 379.931 74.584 381.464 75.2184C382.998 75.8529 384.308 76.9273 385.23 78.3058C386.152 79.6844 386.644 81.3051 386.644 82.963C386.644 85.1862 385.76 87.3184 384.186 88.8904C382.613 90.4625 380.479 91.3456 378.253 91.3456Z" fill="#407BFF"/>
<path opacity="0.7" d="M390.613 82.963C390.613 82.5948 390.613 82.2267 390.613 81.8727L392.753 80.6832C392.597 79.6708 392.331 78.6784 391.959 77.7238H389.521C389.211 77.0591 388.841 76.424 388.416 75.8264L389.677 73.7449C389.031 72.9459 388.304 72.2152 387.509 71.5643L385.411 72.8245C384.815 72.4071 384.185 72.0423 383.526 71.7342V69.2845C382.567 68.9226 381.575 68.657 380.564 68.4916L379.373 70.6297C379.019 70.6297 378.65 70.6297 378.282 70.6297C377.913 70.6297 377.559 70.6297 377.19 70.6297L376 68.4916C374.989 68.6605 373.997 68.9261 373.037 69.2845V71.7342C372.377 72.0391 371.746 72.4041 371.152 72.8245L369.055 71.5643C368.251 72.2112 367.52 72.9422 366.872 73.7449L368.133 75.8264C367.718 76.4276 367.353 77.0623 367.042 77.7238H364.604C364.234 78.6801 363.964 79.6718 363.796 80.6832L365.937 81.8727C365.937 82.2267 365.937 82.5948 365.937 82.963C365.937 83.3311 365.937 83.6993 365.937 84.0533L363.796 85.2427C363.962 86.2546 364.233 87.2465 364.604 88.2022H367.042C367.353 88.8637 367.718 89.4984 368.133 90.0996L366.872 92.1952C367.524 92.99 368.255 93.716 369.055 94.3617L371.152 93.1015C371.743 93.527 372.374 93.8923 373.037 94.1918V96.6414C373.995 97.0064 374.988 97.2721 376 97.4344L377.19 95.2963C377.559 95.2963 377.913 95.2963 378.282 95.2963C378.65 95.2963 379.019 95.2963 379.373 95.2963L380.564 97.4344C381.576 97.2757 382.569 97.0099 383.526 96.6414V94.1918C384.188 93.8892 384.819 93.5241 385.411 93.1015L387.509 94.3617C388.301 93.7121 389.027 92.9865 389.677 92.1952L388.416 90.0996C388.841 89.502 389.211 88.8669 389.521 88.2022H391.959C392.333 87.2481 392.599 86.2555 392.753 85.2427L390.613 84.0533C390.584 83.6568 390.613 83.3311 390.613 82.963ZM378.253 91.3456C376.594 91.3456 374.972 90.854 373.592 89.9329C372.212 89.0118 371.136 87.7026 370.501 86.1709C369.866 84.6392 369.7 82.9537 370.024 81.3276C370.348 79.7016 371.147 78.2079 372.32 77.0356C373.494 75.8632 374.989 75.0649 376.616 74.7414C378.244 74.418 379.931 74.584 381.464 75.2184C382.998 75.8529 384.308 76.9273 385.23 78.3058C386.152 79.6844 386.644 81.3051 386.644 82.963C386.644 85.1862 385.76 87.3184 384.186 88.8904C382.613 90.4625 380.479 91.3456 378.253 91.3456Z" fill="white"/>
<path d="M358.311 125.06C358.311 124.508 358.311 123.97 358.24 123.432L361.443 121.662C361.202 120.143 360.803 118.652 360.253 117.216L356.596 117.287C356.134 116.295 355.584 115.347 354.952 114.455L356.837 111.325C355.872 110.134 354.784 109.047 353.591 108.083L350.459 109.952C349.562 109.33 348.614 108.785 347.624 108.323V104.67C346.192 104.118 344.705 103.72 343.188 103.481L341.416 106.681C340.878 106.681 340.339 106.681 339.786 106.681C339.234 106.681 338.695 106.681 338.156 106.681L336.427 103.481C334.911 103.723 333.425 104.122 331.991 104.67V108.323C331.001 108.785 330.053 109.329 329.156 109.952L326.095 108.083C324.898 109.047 323.805 110.134 322.835 111.325L324.72 114.455C324.092 115.348 323.547 116.296 323.09 117.287L319.433 117.216C318.876 118.65 318.477 120.141 318.243 121.662L321.446 123.432C321.333 124.515 321.333 125.606 321.446 126.689L318.243 128.473C318.479 129.989 318.878 131.475 319.433 132.905L323.09 132.834C323.544 133.827 324.089 134.775 324.72 135.666L322.835 138.796C323.805 139.987 324.898 141.074 326.095 142.038L329.227 140.169C330.121 140.797 331.069 141.342 332.062 141.797V145.451C333.493 146.005 334.981 146.404 336.498 146.64L338.284 143.44C339.368 143.553 340.46 143.553 341.544 143.44L343.316 146.64C344.834 146.408 346.321 146.009 347.752 145.451V141.797C348.744 141.341 349.693 140.796 350.587 140.169L353.719 142.038C354.911 141.074 355.999 139.987 356.965 138.796L355.08 135.666C355.715 134.775 356.265 133.827 356.724 132.834L360.38 132.905C360.929 131.473 361.328 129.987 361.571 128.473L358.368 126.689C358.283 126.137 358.311 125.613 358.311 125.06ZM339.886 132.339C338.445 132.339 337.036 131.912 335.838 131.112C334.64 130.312 333.706 129.176 333.155 127.846C332.604 126.516 332.459 125.052 332.74 123.64C333.021 122.229 333.715 120.932 334.734 119.914C335.753 118.896 337.051 118.203 338.464 117.922C339.878 117.641 341.342 117.785 342.674 118.336C344.005 118.887 345.143 119.82 345.943 121.017C346.744 122.214 347.171 123.621 347.171 125.06C347.171 126.02 346.981 126.97 346.612 127.855C346.243 128.741 345.703 129.546 345.022 130.222C344.341 130.898 343.533 131.434 342.644 131.797C341.755 132.16 340.803 132.344 339.843 132.339H339.886Z" fill="#407BFF"/>
<path opacity="0.7" d="M358.311 125.06C358.311 124.508 358.311 123.97 358.24 123.432L361.443 121.662C361.202 120.143 360.803 118.652 360.253 117.216L356.596 117.287C356.134 116.295 355.584 115.347 354.952 114.455L356.837 111.325C355.872 110.134 354.784 109.047 353.591 108.083L350.459 109.952C349.562 109.33 348.614 108.785 347.624 108.323V104.67C346.192 104.118 344.705 103.72 343.188 103.481L341.416 106.681C340.878 106.681 340.339 106.681 339.786 106.681C339.234 106.681 338.695 106.681 338.156 106.681L336.427 103.481C334.911 103.723 333.425 104.122 331.991 104.67V108.323C331.001 108.785 330.053 109.329 329.156 109.952L326.095 108.083C324.898 109.047 323.805 110.134 322.835 111.325L324.72 114.455C324.092 115.348 323.547 116.296 323.09 117.287L319.433 117.216C318.876 118.65 318.477 120.141 318.243 121.662L321.446 123.432C321.333 124.515 321.333 125.606 321.446 126.689L318.243 128.473C318.479 129.989 318.878 131.475 319.433 132.905L323.09 132.834C323.544 133.827 324.089 134.775 324.72 135.666L322.835 138.796C323.805 139.987 324.898 141.074 326.095 142.038L329.227 140.169C330.121 140.797 331.069 141.342 332.062 141.797V145.451C333.493 146.005 334.981 146.404 336.498 146.64L338.284 143.44C339.368 143.553 340.46 143.553 341.544 143.44L343.316 146.64C344.834 146.408 346.321 146.009 347.752 145.451V141.797C348.744 141.341 349.693 140.796 350.587 140.169L353.719 142.038C354.911 141.074 355.999 139.987 356.965 138.796L355.08 135.666C355.715 134.775 356.265 133.827 356.724 132.834L360.38 132.905C360.929 131.473 361.328 129.987 361.571 128.473L358.368 126.689C358.283 126.137 358.311 125.613 358.311 125.06ZM339.886 132.339C338.445 132.339 337.036 131.912 335.838 131.112C334.64 130.312 333.706 129.176 333.155 127.846C332.604 126.516 332.459 125.052 332.74 123.64C333.021 122.229 333.715 120.932 334.734 119.914C335.753 118.896 337.051 118.203 338.464 117.922C339.878 117.641 341.342 117.785 342.674 118.336C344.005 118.887 345.143 119.82 345.943 121.017C346.744 122.214 347.171 123.621 347.171 125.06C347.171 126.02 346.981 126.97 346.612 127.855C346.243 128.741 345.703 129.546 345.022 130.222C344.341 130.898 343.533 131.434 342.644 131.797C341.755 132.16 340.803 132.344 339.843 132.339H339.886Z" fill="white"/>
<path d="M306.252 42.9611V50.3809L299.165 54.105C298.89 54.2527 298.659 54.4722 298.499 54.7403C298.338 55.0083 298.254 55.3148 298.254 55.6272C298.254 55.9395 298.338 56.246 298.499 56.514C298.659 56.7821 298.89 57.0016 299.165 57.1493L306.252 60.8734V68.2932C306.252 69.0856 306.567 69.8455 307.128 70.4058C307.689 70.9661 308.449 71.2809 309.243 71.2809H334.599C335.393 71.2809 336.156 70.9666 336.719 70.4067C337.282 69.8468 337.6 69.0869 337.604 68.2932V42.9611C337.604 42.165 337.287 41.4014 336.724 40.8385C336.16 40.2755 335.396 39.9592 334.599 39.9592H309.2C308.412 39.9704 307.66 40.2921 307.108 40.8542C306.556 41.4164 306.248 42.1736 306.252 42.9611Z" fill="#407BFF"/>
<g opacity="0.9">
<path opacity="0.9" d="M314.926 50.6924H329.341C329.811 50.6924 330.261 50.506 330.593 50.174C330.926 49.8421 331.112 49.3919 331.112 48.9225C331.112 48.453 330.926 48.0028 330.593 47.6709C330.261 47.339 329.811 47.1525 329.341 47.1525H314.926C314.456 47.1525 314.006 47.339 313.673 47.6709C313.341 48.0028 313.155 48.453 313.155 48.9225C313.155 49.3919 313.341 49.8421 313.673 50.174C314.006 50.506 314.456 50.6924 314.926 50.6924Z" fill="white"/>
<path opacity="0.9" d="M329.341 53.9209H314.926C314.456 53.9209 314.006 54.1074 313.673 54.4393C313.341 54.7713 313.155 55.2215 313.155 55.6909C313.155 56.1603 313.341 56.6105 313.673 56.9424C314.006 57.2744 314.456 57.4609 314.926 57.4609H329.341C329.811 57.4609 330.261 57.2744 330.593 56.9424C330.926 56.6105 331.112 56.1603 331.112 55.6909C331.112 55.2215 330.926 54.7713 330.593 54.4393C330.261 54.1074 329.811 53.9209 329.341 53.9209Z" fill="white"/>
<path opacity="0.9" d="M329.341 60.5619H314.926C314.456 60.5619 314.006 60.7484 313.673 61.0803C313.341 61.4122 313.155 61.8624 313.155 62.3319C313.155 62.8013 313.341 63.2515 313.673 63.5834C314.006 63.9154 314.456 64.1019 314.926 64.1019H329.341C329.811 64.1019 330.261 63.9154 330.593 63.5834C330.926 63.2515 331.112 62.8013 331.112 62.3319C331.112 61.8624 330.926 61.4122 330.593 61.0803C330.261 60.7484 329.811 60.5619 329.341 60.5619Z" fill="white"/>
</g>
<path d="M162.958 31.2651H169.01L172.128 37.1698C172.334 37.5547 172.64 37.8766 173.015 38.1011C173.389 38.3256 173.818 38.4442 174.254 38.4442C174.691 38.4442 175.119 38.3256 175.494 38.1011C175.868 37.8766 176.175 37.5547 176.38 37.1698L179.498 31.2651H185.551C186.125 31.2651 186.694 31.1518 187.224 30.9318C187.755 30.7117 188.237 30.3892 188.642 29.9827C189.048 29.5762 189.369 29.0938 189.588 28.563C189.806 28.0322 189.918 27.4636 189.916 26.8897V4.36127C189.916 3.2046 189.456 2.0953 188.637 1.27741C187.819 0.459516 186.708 2.31378e-05 185.551 2.31378e-05H162.958C162.384 -0.00184719 161.816 0.10969 161.285 0.328201C160.755 0.546712 160.273 0.867886 159.867 1.27324C159.461 1.67859 159.14 2.16011 158.921 2.69008C158.702 3.22006 158.591 3.78802 158.593 4.36127V27.0171C158.622 28.154 159.095 29.2345 159.911 30.028C160.726 30.8216 161.82 31.2655 162.958 31.2651Z" fill="#407BFF"/>
<path opacity="0.9" d="M174.268 6.75427L167.295 10.8323V22.755H172.482V14.7546H176.068V22.755H181.256V10.8323L174.268 6.75427Z" fill="white"/>
<path d="M230.849 355.229H225.463L221.991 348.631C221.818 348.311 221.563 348.044 221.251 347.858C220.939 347.672 220.582 347.574 220.219 347.574C219.856 347.574 219.499 347.672 219.187 347.858C218.875 348.044 218.62 348.311 218.447 348.631L214.975 355.229H209.447C208.128 355.229 206.862 355.753 205.929 356.685C204.996 357.617 204.472 358.881 204.472 360.199V381.581C204.472 382.899 204.996 384.163 205.929 385.095C206.862 386.027 208.128 386.551 209.447 386.551H230.849C232.168 386.551 233.434 386.027 234.367 385.095C235.3 384.163 235.824 382.899 235.824 381.581V360.199C235.824 358.881 235.3 357.617 234.367 356.685C233.434 355.753 232.168 355.229 230.849 355.229Z" fill="#407BFF"/>
<path opacity="0.9" d="M223.181 363.4C222.142 362.361 220.828 361.639 219.393 361.319C217.958 360.999 216.461 361.095 215.079 361.594C213.696 362.093 212.484 362.975 211.585 364.137C210.686 365.299 210.136 366.693 210.002 368.156C209.867 369.619 210.152 371.089 210.823 372.396C211.495 373.703 212.525 374.791 213.793 375.534C215.062 376.277 216.516 376.644 217.985 376.591C219.454 376.539 220.878 376.069 222.09 375.237C222.149 375.588 222.312 375.914 222.558 376.172L227.377 380.972C227.702 381.297 228.143 381.479 228.603 381.479C229.062 381.479 229.504 381.297 229.829 380.972C230.154 380.647 230.336 380.207 230.336 379.747C230.336 379.288 230.154 378.847 229.829 378.522L225.024 373.722C224.765 373.467 224.433 373.298 224.074 373.241C225.093 371.752 225.561 369.956 225.398 368.16C225.236 366.364 224.452 364.681 223.181 363.4ZM221.537 372.703C220.778 373.46 219.81 373.976 218.758 374.185C217.705 374.394 216.614 374.286 215.622 373.875C214.631 373.464 213.783 372.769 213.187 371.878C212.591 370.986 212.273 369.938 212.273 368.865C212.273 367.793 212.591 366.745 213.187 365.853C213.783 364.961 214.631 364.266 215.622 363.856C216.614 363.445 217.705 363.337 218.758 363.546C219.81 363.754 220.778 364.27 221.537 365.028C222.042 365.532 222.443 366.13 222.716 366.788C222.989 367.447 223.13 368.153 223.13 368.865C223.13 369.578 222.989 370.284 222.716 370.942C222.443 371.601 222.042 372.199 221.537 372.703Z" fill="white"/>
<path d="M459.737 212.837C459.737 212.837 448.185 241.44 436.875 244.527C425.564 247.614 408.528 245.108 408.528 245.108L403.255 246.524L398.082 245.759H397.898L392.072 245.618C391.862 245.635 391.652 245.592 391.465 245.494C391.278 245.396 391.124 245.246 391.02 245.063C390.915 244.88 390.866 244.671 390.876 244.461C390.887 244.25 390.958 244.047 391.08 243.876L393.164 241.044C393.339 240.811 393.581 240.638 393.858 240.548L399.414 238.764C399.634 238.715 399.861 238.715 400.08 238.764L408.585 240.109C408.585 240.109 432.183 236.244 434.593 234.063C437.002 231.883 444.103 209.014 444.103 209.014L459.737 212.837Z" fill="#EEC1BB"/>
<path opacity="0.1" d="M409.109 239.925L408.556 240.01L400.052 238.665C399.833 238.616 399.605 238.616 399.386 238.665L393.83 240.449C393.553 240.539 393.31 240.712 393.135 240.945L391.052 243.777C390.93 243.948 390.859 244.151 390.848 244.362C390.837 244.572 390.887 244.781 390.991 244.964C391.096 245.147 391.25 245.297 391.437 245.395C391.623 245.493 391.834 245.536 392.044 245.518L397.869 245.66H398.054L401.526 246.17C404.488 244.679 407.079 242.545 409.109 239.925Z" fill="black"/>
<path d="M466.71 184.504C458.319 181.756 446.513 188.058 441.991 214.452L459.411 219.592C459.411 219.592 478.701 188.44 466.71 184.504Z" fill="#407BFF"/>
<path d="M417.896 150.01C417.896 150.888 418.364 151.582 418.931 151.582C419.498 151.582 419.994 150.831 419.952 149.982C419.909 149.132 419.484 148.424 418.917 148.438C418.35 148.452 417.896 149.146 417.896 150.01Z" fill="#263238"/>
<path d="M421.327 150.874L417.202 157.685C417.202 157.685 418.619 159.299 421.723 158.109L421.327 150.874Z" fill="#D4827D"/>
<path d="M422.106 144.544C422.056 144.601 421.991 144.645 421.919 144.669C421.847 144.694 421.77 144.7 421.695 144.686C421.137 144.59 420.564 144.629 420.025 144.799C419.485 144.969 418.993 145.265 418.591 145.663C418.504 145.744 418.39 145.788 418.272 145.788C418.154 145.788 418.04 145.744 417.953 145.663C417.871 145.574 417.826 145.458 417.826 145.337C417.826 145.217 417.871 145.1 417.953 145.012C418.454 144.5 419.071 144.118 419.753 143.898C420.435 143.678 421.16 143.628 421.865 143.751C421.925 143.758 421.983 143.777 422.035 143.807C422.087 143.836 422.133 143.876 422.17 143.923C422.207 143.971 422.234 144.025 422.25 144.083C422.266 144.141 422.27 144.202 422.262 144.261C422.24 144.369 422.186 144.468 422.106 144.544Z" fill="#263238"/>
<path d="M451.247 143.836C451.884 155.348 452.409 160.219 447.321 166.761C439.199 173.77 425.366 174.889 421.284 163.802C417.613 153.89 417.188 136.714 427.846 130.781C429.654 129.774 431.643 129.134 433.699 128.896C435.755 128.658 437.837 128.827 439.828 129.394C441.818 129.961 443.677 130.914 445.298 132.199C446.92 133.484 448.272 135.076 449.277 136.884C450.456 139.021 451.13 141.399 451.247 143.836Z" fill="#EEC1BB"/>
<path d="M435.188 169.027L438.108 186.089L452.338 182.804L447.363 165.388L435.188 169.027Z" fill="#EEC1BB"/>
<path d="M424.941 144.686C425.664 137.209 423.084 145.847 419.626 135.978C416.167 126.108 432.509 118.094 435.117 119.934C437.725 121.775 436.237 124.593 444.883 126.193C447.242 126.567 449.383 127.787 450.906 129.625C452.43 131.462 453.231 133.791 453.16 136.176C453.16 136.176 458.135 138.47 456.363 149.146C455.063 155.987 452.148 162.419 447.859 167.908C447.859 167.908 444.585 164.538 439.355 167.639C437.314 166.308 435.588 164.549 434.295 162.485C431.971 159.001 431.248 155.688 428.059 155.405C421.397 154.796 424.7 147.15 424.941 144.686Z" fill="#263238"/>
<path d="M452.239 137.464C452.239 137.464 459.326 133.131 456.179 128.586C453.033 124.041 454.549 133.599 452.239 137.464Z" fill="#263238"/>
<path d="M426.968 149.033C425.396 150.788 424.585 153.095 424.714 155.447C424.912 158.563 427.974 159.115 430.383 157.416C432.793 155.716 435.075 152.403 433.686 149.67C433.378 149.074 432.925 148.564 432.368 148.189C431.812 147.813 431.17 147.583 430.501 147.519C429.832 147.456 429.158 147.561 428.541 147.826C427.924 148.09 427.383 148.505 426.968 149.033Z" fill="#FFC3BD"/>
<path opacity="0.1" d="M435.458 170.641L436.62 177.409C436.518 175.733 436.748 174.054 437.298 172.467C437.847 170.88 438.706 169.417 439.823 168.163C438.955 168.219 438.111 168.471 437.355 168.9C436.598 169.329 435.95 169.924 435.458 170.641Z" fill="black"/>
<path d="M335.407 214.65H331.339V238.623H335.407V214.65Z" fill="#407BFF"/>
<path opacity="0.7" d="M335.407 214.65H331.339V238.623H335.407V214.65Z" fill="white"/>
<path d="M307.457 167.044H297.323C295.499 167.044 293.751 167.768 292.462 169.056C291.173 170.344 290.448 172.09 290.448 173.912V220.824C290.448 221.725 290.626 222.618 290.972 223.452C291.317 224.285 291.824 225.042 292.462 225.68C293.1 226.317 293.858 226.823 294.692 227.168C295.526 227.514 296.42 227.691 297.323 227.691H307.457V167.044Z" fill="#407BFF"/>
<path d="M369.437 167.044H300.866C297.069 167.044 293.992 170.119 293.992 173.912V220.809C293.992 224.602 297.069 227.677 300.866 227.677H369.437C373.234 227.677 376.311 224.602 376.311 220.809V173.912C376.311 170.119 373.234 167.044 369.437 167.044Z" fill="#407BFF"/>
<path opacity="0.5" d="M369.437 167.044H300.866C297.069 167.044 293.992 170.119 293.992 173.912V220.809C293.992 224.602 297.069 227.677 300.866 227.677H369.437C373.234 227.677 376.311 224.602 376.311 220.809V173.912C376.311 170.119 373.234 167.044 369.437 167.044Z" fill="white"/>
<path d="M369.437 169.876H300.866C298.635 169.876 296.826 171.683 296.826 173.912V220.809C296.826 223.038 298.635 224.845 300.866 224.845H369.437C371.668 224.845 373.477 223.038 373.477 220.809V173.912C373.477 171.683 371.668 169.876 369.437 169.876Z" fill="#263238"/>
<path d="M318.569 248.676C318.688 244.833 320.3 241.187 323.063 238.51C325.826 235.834 329.524 234.337 333.373 234.337C337.222 234.337 340.919 235.834 343.683 238.51C346.446 241.187 348.058 244.833 348.177 248.676H318.569Z" fill="#407BFF"/>
<path d="M353.506 243.635H323.898V248.435H383.115V246.467L353.506 243.635Z" fill="#407BFF"/>
<path opacity="0.8" d="M353.506 243.635H323.898V248.435H383.115V246.467L353.506 243.635Z" fill="white"/>
<path d="M353.506 248.435H323.898V243.635L353.506 246.467V248.435Z" fill="#407BFF"/>
<path opacity="0.6" d="M353.506 248.435H323.898V243.635L353.506 246.467V248.435Z" fill="white"/>
<path d="M418.79 413.696H357.716C356.498 413.697 355.291 413.459 354.164 412.995C353.038 412.53 352.015 411.848 351.152 410.988C350.29 410.128 349.606 409.107 349.139 407.982C348.673 406.858 348.432 405.652 348.432 404.435V264.139C348.432 262.921 348.673 261.716 349.139 260.592C349.606 259.467 350.29 258.446 351.152 257.585C352.015 256.725 353.038 256.044 354.164 255.579C355.291 255.114 356.498 254.876 357.716 254.878H418.79C419.447 254.878 420.078 255.139 420.543 255.604C421.009 256.069 421.27 256.699 421.27 257.356C421.27 258.013 421.009 258.644 420.543 259.108C420.078 259.573 419.447 259.834 418.79 259.834H357.716C357.152 259.825 356.591 259.928 356.067 260.137C355.543 260.346 355.066 260.658 354.663 261.053C354.261 261.448 353.941 261.92 353.723 262.44C353.505 262.96 353.393 263.518 353.393 264.082V404.378C353.393 404.942 353.505 405.5 353.723 406.02C353.941 406.541 354.261 407.012 354.663 407.407C355.066 407.803 355.543 408.114 356.067 408.324C356.591 408.533 357.152 408.636 357.716 408.626H418.79C419.447 408.626 420.078 408.887 420.543 409.352C421.009 409.817 421.27 410.447 421.27 411.104C421.285 411.439 421.232 411.774 421.115 412.087C420.997 412.401 420.817 412.688 420.585 412.93C420.353 413.172 420.074 413.365 419.766 413.497C419.457 413.628 419.125 413.696 418.79 413.696Z" fill="#263238"/>
<g opacity="0.5">
<path opacity="0.5" d="M418.79 413.696H357.716C356.498 413.697 355.291 413.459 354.164 412.995C353.038 412.53 352.015 411.848 351.152 410.988C350.29 410.128 349.606 409.107 349.139 407.982C348.673 406.858 348.432 405.652 348.432 404.435V264.139C348.432 262.921 348.673 261.716 349.139 260.592C349.606 259.467 350.29 258.446 351.152 257.585C352.015 256.725 353.038 256.044 354.164 255.579C355.291 255.114 356.498 254.876 357.716 254.878H418.79C419.447 254.878 420.078 255.139 420.543 255.604C421.009 256.069 421.27 256.699 421.27 257.356C421.27 258.013 421.009 258.644 420.543 259.108C420.078 259.573 419.447 259.834 418.79 259.834H357.716C357.152 259.825 356.591 259.928 356.067 260.137C355.543 260.346 355.066 260.658 354.663 261.053C354.261 261.448 353.941 261.92 353.723 262.44C353.505 262.96 353.393 263.518 353.393 264.082V404.378C353.393 404.942 353.505 405.5 353.723 406.02C353.941 406.541 354.261 407.012 354.663 407.407C355.066 407.803 355.543 408.114 356.067 408.324C356.591 408.533 357.152 408.636 357.716 408.626H418.79C419.447 408.626 420.078 408.887 420.543 409.352C421.009 409.817 421.27 410.447 421.27 411.104C421.285 411.439 421.232 411.774 421.115 412.087C420.997 412.401 420.817 412.688 420.585 412.93C420.353 413.172 420.074 413.365 419.766 413.497C419.457 413.628 419.125 413.696 418.79 413.696Z" fill="white"/>
</g>
<path d="M357.475 248.435H270.747V255.699H357.475V248.435Z" fill="#407BFF"/>
<path opacity="0.2" d="M357.475 248.435H270.747V255.699H357.475V248.435Z" fill="white"/>
<path d="M427.478 248.435H353.506V255.699H427.478V248.435Z" fill="#407BFF"/>
<path opacity="0.5" d="M427.478 248.435H353.506V255.699H427.478V248.435Z" fill="white"/>
<path d="M401.541 362.224L405.637 403.6H395.829L386.006 363.3L401.541 362.224Z" fill="#EEC1BB"/>
<path d="M394.907 400.838L407.422 401.051C407.651 401.056 407.871 401.139 408.046 401.285C408.221 401.432 408.341 401.634 408.386 401.858L410.484 412.067C410.572 412.501 410.487 412.951 410.245 413.322C410.004 413.693 409.627 413.954 409.194 414.05H408.84C404.318 413.894 400.336 413.582 394.666 413.483C388.047 413.37 389.706 414.191 381.91 414.177C377.219 414.177 376.453 408.81 378.438 408.584C387.58 407.593 388.572 404.86 392.143 401.66C392.933 401.057 393.916 400.764 394.907 400.838Z" fill="#263238"/>
<path opacity="0.1" d="M404.574 392.796L401.541 362.224L386.006 363.3L393.192 392.796H404.574Z" fill="black"/>
<path d="M468.694 266.829L428.47 268.245C428.47 268.245 374.285 287.177 372.867 301.719C371.308 316.7 389.507 385.532 389.507 385.532H405.679C405.679 385.532 401.214 335.023 399.514 319.561C397.813 304.098 455.91 309.21 466.001 296.027C475.228 283.934 468.694 266.829 468.694 266.829Z" fill="#263238"/>
<path opacity="0.2" d="M468.694 266.829L428.47 268.245C428.47 268.245 374.285 287.177 372.867 301.719C371.308 316.7 389.507 385.532 389.507 385.532H405.679C405.679 385.532 401.214 335.023 399.514 319.561C397.813 304.098 455.91 309.21 466.001 296.027C475.228 283.934 468.694 266.829 468.694 266.829Z" fill="black"/>
<path d="M408.372 383.266L408.726 388.972H388.742L386.786 383.266H408.372Z" fill="#407BFF"/>
<path d="M364.108 364.193L365.185 403.6H355.547L349.835 364.193H364.108Z" fill="#EEC1BB"/>
<path d="M354.215 400.838L366.73 401.051C366.959 401.056 367.179 401.139 367.354 401.285C367.529 401.432 367.649 401.634 367.694 401.858L369.792 412.067C369.88 412.501 369.795 412.951 369.553 413.322C369.312 413.693 368.934 413.954 368.502 414.05H368.148C363.626 413.894 359.644 413.582 353.974 413.483C347.341 413.37 349.013 414.191 341.218 414.177C336.527 414.177 335.761 408.81 337.745 408.584C346.887 407.593 347.88 404.86 351.451 401.66C352.239 401.054 353.224 400.762 354.215 400.838Z" fill="#263238"/>
<path opacity="0.1" d="M364.888 392.767L364.108 364.193H349.835L353.988 392.796C357.092 392.81 361.359 392.781 364.888 392.767Z" fill="black"/>
<path d="M451.204 270.157C451.204 270.157 454.549 300.714 423.438 302.144C392.328 303.574 368.034 307.128 367.326 318.187C366.617 329.246 367.326 385.588 367.326 385.588H350.417C350.417 385.588 343.84 349.962 341.275 327.872C338.78 306.42 334.188 290.858 356.256 283.594C379.685 275.863 421.327 268.727 421.327 268.727L451.318 266.829L451.204 270.157Z" fill="#263238"/>
<path d="M369.82 383.266L368.757 388.972H350.19L348.234 383.266H369.82Z" fill="#407BFF"/>
<path d="M457.908 182.493C457.908 182.493 457.908 175.611 443.976 176.404C429.179 177.254 431.971 183.852 431.971 183.852L457.908 182.493Z" fill="#407BFF"/>
<path opacity="0.3" d="M457.908 182.493C457.908 182.493 457.908 175.611 443.976 176.404C429.179 177.254 431.971 183.852 431.971 183.852L457.908 182.493Z" fill="black"/>
<path d="M470.891 213.361C469.956 226.969 470.282 267.905 470.282 267.905C470.282 267.905 440.517 269.859 417.16 269.095L414.452 190.351C414.463 188.959 414.893 187.602 415.687 186.458C416.481 185.314 417.602 184.435 418.903 183.937C425.508 181.374 441.014 178.471 465.264 181.657C473.627 182.776 471.997 197.276 470.891 213.361Z" fill="#407BFF"/>
<path d="M419.229 212.837C419.229 212.837 407.663 241.44 396.367 244.527C385.071 247.614 368.02 245.108 368.02 245.108L362.747 246.524L357.588 245.759H357.404L351.565 245.618C351.354 245.635 351.144 245.592 350.957 245.494C350.771 245.396 350.616 245.246 350.512 245.063C350.408 244.88 350.358 244.671 350.369 244.461C350.379 244.25 350.45 244.047 350.572 243.876L352.67 241.044C352.845 240.811 353.088 240.638 353.365 240.548L358.906 238.764C359.131 238.715 359.363 238.715 359.587 238.764L368.091 240.109C368.091 240.109 391.69 236.244 394.085 234.063C396.48 231.883 403.61 209.014 403.61 209.014L419.229 212.837Z" fill="#EEC1BB"/>
<path opacity="0.1" d="M418.931 199.527C418.931 199.527 417.131 201.665 414.948 204.752L415.728 227.549C424.416 223.712 427.861 201.368 427.861 201.368L422.191 197.375L418.931 199.527Z" fill="black"/>
<path d="M426.202 184.504C417.812 181.757 405.991 188.058 401.469 214.452L418.903 219.535C418.903 219.535 438.193 188.44 426.202 184.504Z" fill="#407BFF"/>
<path d="M437.3 316.969H424.189V355.357H437.3V316.969Z" fill="#263238"/>
<path opacity="0.6" d="M437.3 316.969H424.189V355.357H437.3V316.969Z" fill="white"/>
<path d="M439.327 390.134V341.367H422.149V390.134L383.044 395.557V400.98L430.738 396.916L478.432 400.98V395.557L439.327 390.134Z" fill="#263238"/>
<path d="M382.477 414.276C385.334 414.276 387.65 411.962 387.65 409.108C387.65 406.253 385.334 403.939 382.477 403.939C379.62 403.939 377.303 406.253 377.303 409.108C377.303 411.962 379.62 414.276 382.477 414.276Z" fill="#407BFF"/>
<path d="M478.431 414.276C481.289 414.276 483.605 411.962 483.605 409.108C483.605 406.253 481.289 403.939 478.431 403.939C475.574 403.939 473.258 406.253 473.258 409.108C473.258 411.962 475.574 414.276 478.431 414.276Z" fill="#407BFF"/>
<path d="M430.738 414.276C433.595 414.276 435.911 411.962 435.911 409.108C435.911 406.253 433.595 403.939 430.738 403.939C427.881 403.939 425.564 406.253 425.564 409.108C425.564 411.962 427.881 414.276 430.738 414.276Z" fill="#407BFF"/>
<path opacity="0.3" d="M437.3 316.969H424.189V326.456H437.3V316.969Z" fill="black"/>
<path d="M482.57 229.957H439.851C436.493 229.96 433.257 231.214 430.774 233.473C428.292 235.733 426.743 238.837 426.429 242.177L422.829 280.734C422.429 284.983 420.513 288.947 417.429 291.901C414.345 294.854 410.3 296.6 406.033 296.82L364.803 298.887C362.39 299.011 360.116 300.055 358.452 301.805C356.788 303.554 355.86 305.876 355.859 308.289V309.153C355.859 311.222 356.682 313.207 358.146 314.67C359.611 316.133 361.598 316.955 363.669 316.955H489.232L495.992 244.74C496.174 242.869 495.963 240.981 495.371 239.197C494.779 237.413 493.82 235.772 492.557 234.38C491.293 232.988 489.751 231.875 488.031 231.114C486.312 230.352 484.451 229.958 482.57 229.957Z" fill="#407BFF"/>
<path opacity="0.3" d="M482.57 229.957H439.851C436.493 229.96 433.257 231.214 430.774 233.473C428.292 235.733 426.743 238.837 426.429 242.177L422.829 280.734C422.429 284.983 420.513 288.947 417.429 291.901C414.345 294.854 410.3 296.6 406.033 296.82L364.803 298.887C362.39 299.011 360.116 300.055 358.452 301.805C356.788 303.554 355.86 305.876 355.859 308.289V309.153C355.859 311.222 356.682 313.207 358.146 314.67C359.611 316.133 361.598 316.955 363.669 316.955H489.232L495.992 244.74C496.174 242.869 495.963 240.981 495.371 239.197C494.779 237.413 493.82 235.772 492.557 234.38C491.293 232.988 489.751 231.875 488.031 231.114C486.312 230.352 484.451 229.958 482.57 229.957Z" fill="white"/>
<path d="M384.518 273.399H390.4V304.14C390.4 304.892 390.101 305.612 389.57 306.143C389.038 306.674 388.317 306.972 387.565 306.972H387.353C386.601 306.972 385.88 306.674 385.348 306.143C384.817 305.612 384.518 304.892 384.518 304.14V273.399Z" fill="#263238"/>
<path opacity="0.2" d="M384.518 273.399H390.4V304.14C390.4 304.892 390.101 305.612 389.57 306.143C389.038 306.674 388.317 306.972 387.565 306.972H387.353C386.601 306.972 385.88 306.674 385.348 306.143C384.817 305.612 384.518 304.892 384.518 304.14V273.399Z" fill="white"/>
<path d="M412.879 264.578H399.797V275.41H412.907C413.643 275.448 414.378 275.335 415.068 275.08C415.759 274.825 416.39 274.432 416.924 273.925C417.458 273.419 417.883 272.809 418.173 272.133C418.463 271.457 418.613 270.729 418.613 269.994C418.613 269.258 418.463 268.53 418.173 267.855C417.883 267.179 417.458 266.569 416.924 266.062C416.39 265.556 415.759 265.163 415.068 264.908C414.378 264.652 413.643 264.54 412.907 264.578H412.879Z" fill="#407BFF"/>
<path opacity="0.5" d="M412.879 264.578H399.797V275.41H412.907C413.643 275.448 414.378 275.335 415.068 275.08C415.759 274.825 416.39 274.432 416.924 273.925C417.458 273.419 417.883 272.809 418.173 272.133C418.463 271.457 418.613 270.729 418.613 269.994C418.613 269.258 418.463 268.53 418.173 267.855C417.883 267.179 417.458 266.569 416.924 266.062C416.39 265.556 415.759 265.163 415.068 264.908C414.378 264.652 413.643 264.54 412.907 264.578H412.879Z" fill="white"/>
<path d="M407.649 264.578H361.826C358.938 264.578 356.596 266.917 356.596 269.803V270.199C356.596 273.085 358.938 275.424 361.826 275.424H407.649C410.538 275.424 412.879 273.085 412.879 270.199V269.803C412.879 266.917 410.538 264.578 407.649 264.578Z" fill="#407BFF"/>
<path opacity="0.3" d="M407.649 264.578H361.826C358.938 264.578 356.596 266.917 356.596 269.803V270.199C356.596 273.085 358.938 275.424 361.826 275.424H407.649C410.538 275.424 412.879 273.085 412.879 270.199V269.803C412.879 266.917 410.538 264.578 407.649 264.578Z" fill="white"/>
<path d="M492.18 316.969H429.377L436.379 242.248C436.693 238.907 438.242 235.804 440.724 233.544C443.206 231.284 446.443 230.031 449.801 230.028H492.52C494.396 230.029 496.251 230.422 497.966 231.18C499.682 231.939 501.22 233.046 502.484 234.432C503.747 235.818 504.707 237.451 505.302 239.229C505.898 241.006 506.116 242.888 505.942 244.754L499.833 310.088C499.634 311.977 498.741 313.725 497.328 314.996C495.915 316.266 494.081 316.969 492.18 316.969Z" fill="#407BFF"/>
<path opacity="0.5" d="M492.18 316.969H429.377L436.379 242.248C436.693 238.907 438.242 235.804 440.724 233.544C443.206 231.284 446.443 230.031 449.801 230.028H492.52C494.396 230.029 496.251 230.422 497.966 231.18C499.682 231.939 501.22 233.046 502.484 234.432C503.747 235.818 504.707 237.451 505.302 239.229C505.898 241.006 506.116 242.888 505.942 244.754L499.833 310.088C499.634 311.977 498.741 313.725 497.328 314.996C495.915 316.266 494.081 316.969 492.18 316.969Z" fill="white"/>
<path d="M345.47 413.696H284.396C283.178 413.697 281.971 413.459 280.845 412.995C279.719 412.53 278.695 411.848 277.833 410.988C276.971 410.128 276.286 409.107 275.82 407.982C275.353 406.858 275.113 405.652 275.113 404.435V264.139C275.113 262.921 275.353 261.716 275.82 260.592C276.286 259.467 276.971 258.446 277.833 257.585C278.695 256.725 279.719 256.044 280.845 255.579C281.971 255.114 283.178 254.876 284.396 254.878H345.47C346.128 254.878 346.759 255.139 347.224 255.604C347.689 256.069 347.95 256.699 347.95 257.356C347.95 258.013 347.689 258.644 347.224 259.108C346.759 259.573 346.128 259.834 345.47 259.834H284.396C283.832 259.825 283.272 259.928 282.747 260.137C282.223 260.346 281.746 260.658 281.344 261.053C280.941 261.448 280.622 261.92 280.404 262.44C280.186 262.96 280.073 263.518 280.074 264.082V404.378C280.073 404.942 280.186 405.5 280.404 406.02C280.622 406.541 280.941 407.012 281.344 407.407C281.746 407.803 282.223 408.114 282.747 408.324C283.272 408.533 283.832 408.636 284.396 408.626H345.47C346.128 408.626 346.759 408.887 347.224 409.352C347.689 409.817 347.95 410.447 347.95 411.104C347.966 411.439 347.913 411.774 347.795 412.087C347.677 412.401 347.497 412.688 347.265 412.93C347.033 413.172 346.755 413.365 346.446 413.497C346.138 413.628 345.806 413.696 345.47 413.696Z" fill="#263238"/>
<g opacity="0.5">
<path opacity="0.5" d="M345.47 413.696H284.396C283.178 413.697 281.971 413.459 280.845 412.995C279.719 412.53 278.695 411.848 277.833 410.988C276.971 410.128 276.286 409.107 275.82 407.982C275.353 406.858 275.113 405.652 275.113 404.435V264.139C275.113 262.921 275.353 261.716 275.82 260.592C276.286 259.467 276.971 258.446 277.833 257.585C278.695 256.725 279.719 256.044 280.845 255.579C281.971 255.114 283.178 254.876 284.396 254.878H345.47C346.128 254.878 346.759 255.139 347.224 255.604C347.689 256.069 347.95 256.699 347.95 257.356C347.95 258.013 347.689 258.644 347.224 259.108C346.759 259.573 346.128 259.834 345.47 259.834H284.396C283.832 259.825 283.272 259.928 282.747 260.137C282.223 260.346 281.746 260.658 281.344 261.053C280.941 261.448 280.622 261.92 280.404 262.44C280.186 262.96 280.073 263.518 280.074 264.082V404.378C280.073 404.942 280.186 405.5 280.404 406.02C280.622 406.541 280.941 407.012 281.344 407.407C281.746 407.803 282.223 408.114 282.747 408.324C283.272 408.533 283.832 408.636 284.396 408.626H345.47C346.128 408.626 346.759 408.887 347.224 409.352C347.689 409.817 347.95 410.447 347.95 411.104C347.966 411.439 347.913 411.774 347.795 412.087C347.677 412.401 347.497 412.688 347.265 412.93C347.033 413.172 346.755 413.365 346.446 413.497C346.138 413.628 345.806 413.696 345.47 413.696Z" fill="white"/>
</g>
<path d="M305.104 181.063L300.852 178.231C300.743 178.162 300.654 178.066 300.593 177.954C300.531 177.841 300.499 177.715 300.499 177.586C300.499 177.458 300.531 177.332 300.593 177.219C300.654 177.107 300.743 177.011 300.852 176.942L305.104 174.11C305.26 174.008 305.45 173.971 305.634 174.008C305.817 174.045 305.978 174.153 306.082 174.308C306.18 174.463 306.214 174.65 306.177 174.83C306.14 175.009 306.035 175.168 305.883 175.271L302.354 177.608L305.883 179.944C306.035 180.048 306.14 180.206 306.177 180.385C306.214 180.565 306.18 180.752 306.082 180.907C305.969 181.052 305.805 181.149 305.624 181.178C305.442 181.207 305.256 181.166 305.104 181.063Z" fill="white"/>
<path d="M314.515 180.864C314.43 180.709 314.408 180.527 314.453 180.356C314.498 180.185 314.606 180.038 314.756 179.944L318.285 177.608L314.756 175.229C314.604 175.125 314.499 174.966 314.465 174.785C314.43 174.605 314.469 174.418 314.572 174.266C314.622 174.189 314.687 174.124 314.762 174.072C314.838 174.021 314.923 173.985 315.012 173.967C315.102 173.948 315.194 173.948 315.284 173.965C315.374 173.982 315.459 174.017 315.536 174.068L319.788 176.9C319.896 176.969 319.985 177.064 320.047 177.177C320.108 177.289 320.141 177.415 320.141 177.544C320.141 177.672 320.108 177.799 320.047 177.911C319.985 178.024 319.896 178.119 319.788 178.188L315.536 181.02C315.459 181.08 315.372 181.123 315.278 181.148C315.185 181.172 315.087 181.177 314.992 181.163C314.896 181.148 314.804 181.114 314.722 181.063C314.64 181.011 314.57 180.944 314.515 180.864Z" fill="white"/>
<path d="M308.69 182.776C308.602 182.749 308.52 182.704 308.45 182.645C308.379 182.586 308.321 182.513 308.279 182.432C308.237 182.35 308.212 182.261 308.204 182.169C308.197 182.078 308.208 181.985 308.236 181.898L311.17 172.638C311.196 172.55 311.239 172.469 311.297 172.399C311.355 172.329 311.426 172.271 311.507 172.228C311.587 172.186 311.676 172.16 311.766 172.153C311.857 172.145 311.948 172.156 312.035 172.184C312.122 172.21 312.203 172.253 312.274 172.311C312.344 172.369 312.402 172.44 312.444 172.52C312.487 172.601 312.512 172.689 312.52 172.78C312.527 172.871 312.517 172.962 312.488 173.048L309.569 182.323C309.541 182.411 309.497 182.492 309.438 182.563C309.378 182.633 309.306 182.691 309.224 182.733C309.142 182.775 309.053 182.801 308.961 182.808C308.87 182.815 308.777 182.805 308.69 182.776Z" fill="white"/>
<path d="M332.756 189.856H301.192C301.096 189.856 301.001 189.837 300.912 189.8C300.823 189.762 300.743 189.708 300.676 189.639C300.608 189.571 300.555 189.49 300.52 189.4C300.485 189.311 300.467 189.216 300.469 189.12C300.467 189.024 300.485 188.928 300.52 188.839C300.555 188.75 300.608 188.668 300.676 188.6C300.743 188.531 300.823 188.477 300.912 188.44C301.001 188.402 301.096 188.383 301.192 188.383H332.756C332.952 188.383 333.139 188.461 333.277 188.599C333.416 188.737 333.493 188.924 333.493 189.12C333.493 189.216 333.474 189.312 333.437 189.401C333.4 189.491 333.346 189.572 333.277 189.64C333.209 189.709 333.128 189.763 333.038 189.8C332.949 189.837 332.853 189.856 332.756 189.856Z" fill="white"/>
<path d="M369.012 189.856H337.434C337.337 189.856 337.241 189.837 337.151 189.8C337.062 189.763 336.981 189.709 336.912 189.64C336.844 189.572 336.79 189.491 336.753 189.401C336.716 189.312 336.697 189.216 336.697 189.12C336.711 188.934 336.795 188.761 336.931 188.635C337.068 188.509 337.248 188.439 337.434 188.44H368.984C369.179 188.44 369.367 188.518 369.505 188.656C369.643 188.794 369.721 188.981 369.721 189.176C369.707 189.357 369.627 189.526 369.496 189.651C369.366 189.777 369.193 189.85 369.012 189.856Z" fill="white"/>
<path d="M319.235 196.341H301.192C301.096 196.341 301.001 196.322 300.912 196.285C300.823 196.248 300.743 196.193 300.676 196.125C300.608 196.056 300.555 195.975 300.52 195.886C300.485 195.796 300.467 195.701 300.469 195.605C300.469 195.413 300.545 195.23 300.681 195.094C300.816 194.959 301 194.883 301.192 194.883H319.235C319.428 194.883 319.613 194.958 319.751 195.093C319.889 195.228 319.968 195.412 319.972 195.605C319.972 195.8 319.894 195.987 319.756 196.125C319.618 196.264 319.43 196.341 319.235 196.341Z" fill="white"/>
<path d="M353.478 196.341H323.926C323.83 196.341 323.735 196.322 323.646 196.285C323.558 196.248 323.477 196.193 323.41 196.125C323.343 196.056 323.29 195.975 323.254 195.886C323.219 195.796 323.202 195.701 323.204 195.605C323.204 195.413 323.28 195.23 323.415 195.094C323.551 194.959 323.735 194.883 323.926 194.883H353.478C353.67 194.883 353.854 194.959 353.989 195.094C354.125 195.23 354.201 195.413 354.201 195.605C354.203 195.701 354.186 195.796 354.15 195.886C354.115 195.975 354.062 196.056 353.994 196.125C353.927 196.193 353.847 196.248 353.758 196.285C353.669 196.322 353.574 196.341 353.478 196.341Z" fill="white"/>
<path d="M349.268 202.841H301.192C300.999 202.837 300.815 202.758 300.68 202.62C300.545 202.482 300.469 202.297 300.469 202.104C300.467 202.008 300.485 201.913 300.52 201.824C300.555 201.734 300.608 201.653 300.676 201.584C300.743 201.516 300.823 201.461 300.912 201.424C301.001 201.387 301.096 201.368 301.192 201.368H349.268C349.464 201.368 349.651 201.446 349.79 201.584C349.928 201.722 350.005 201.909 350.005 202.104C350.005 202.3 349.928 202.487 349.79 202.625C349.651 202.763 349.464 202.841 349.268 202.841Z" fill="white"/>
<path d="M364.009 202.841H353.974C353.779 202.841 353.591 202.763 353.453 202.625C353.315 202.487 353.237 202.3 353.237 202.104C353.237 201.909 353.315 201.722 353.453 201.584C353.591 201.446 353.779 201.368 353.974 201.368H364.009C364.204 201.368 364.392 201.446 364.53 201.584C364.668 201.722 364.746 201.909 364.746 202.104C364.746 202.3 364.668 202.487 364.53 202.625C364.392 202.763 364.204 202.841 364.009 202.841Z" fill="white"/>
<path d="M323.643 209.326H301.192C301.096 209.326 301.001 209.307 300.912 209.269C300.823 209.232 300.743 209.178 300.676 209.109C300.608 209.041 300.555 208.959 300.52 208.87C300.485 208.781 300.467 208.686 300.469 208.589C300.467 208.493 300.485 208.398 300.52 208.309C300.555 208.22 300.608 208.138 300.676 208.07C300.743 208.001 300.823 207.947 300.912 207.909C301.001 207.872 301.096 207.853 301.192 207.853H323.643C323.838 207.853 324.026 207.931 324.164 208.069C324.302 208.207 324.38 208.394 324.38 208.589C324.38 208.785 324.302 208.972 324.164 209.11C324.026 209.248 323.838 209.326 323.643 209.326Z" fill="white"/>
<path d="M356.284 209.326H328.348C328.153 209.326 327.965 209.248 327.827 209.11C327.689 208.972 327.611 208.785 327.611 208.589C327.611 208.394 327.689 208.207 327.827 208.069C327.965 207.931 328.153 207.853 328.348 207.853H356.284C356.48 207.853 356.667 207.931 356.805 208.069C356.944 208.207 357.021 208.394 357.021 208.589C357.021 208.785 356.944 208.972 356.805 209.11C356.667 209.248 356.48 209.326 356.284 209.326Z" fill="white"/>
<path d="M332.756 215.811H301.192C301.096 215.811 301.001 215.792 300.912 215.755C300.823 215.718 300.743 215.663 300.676 215.595C300.608 215.526 300.555 215.445 300.52 215.355C300.485 215.266 300.467 215.171 300.469 215.075C300.469 214.883 300.545 214.7 300.681 214.564C300.816 214.429 301 214.353 301.192 214.353H332.756C332.852 214.351 332.948 214.368 333.037 214.403C333.127 214.439 333.208 214.492 333.277 214.559C333.345 214.626 333.4 214.706 333.437 214.795C333.474 214.884 333.493 214.979 333.493 215.075C333.493 215.27 333.416 215.457 333.277 215.595C333.139 215.733 332.952 215.811 332.756 215.811Z" fill="white"/>
<path d="M359.728 215.811H337.434C337.238 215.811 337.051 215.733 336.912 215.595C336.774 215.457 336.697 215.27 336.697 215.075C336.697 214.979 336.716 214.884 336.753 214.795C336.79 214.706 336.845 214.626 336.913 214.559C336.982 214.492 337.063 214.439 337.153 214.403C337.242 214.368 337.337 214.351 337.434 214.353H359.7C359.892 214.353 360.076 214.429 360.211 214.564C360.347 214.7 360.423 214.883 360.423 215.075C360.427 215.264 360.356 215.447 360.226 215.585C360.096 215.722 359.918 215.804 359.728 215.811Z" fill="white"/>
<path d="M85.8117 89.0659C86.3928 95.7352 84.9471 107.814 79.9155 111.722C88.122 114.681 96.8245 119.779 102.381 126.505C107.894 118.49 101.629 113.917 101.629 113.917C94.5426 111.396 95.2938 106.029 97.1221 101.088L85.8117 89.0659Z" fill="#B97964"/>
<path d="M112.642 83.317C112.557 84.1524 112.954 84.8745 113.507 84.9312C114.059 84.9878 114.556 84.3365 114.641 83.5152C114.726 82.6939 114.329 81.9576 113.776 81.901C113.223 81.8443 112.741 82.4815 112.642 83.317Z" fill="#263238"/>
<path d="M113.563 81.9152L115.619 81.5187C115.619 81.5187 114.442 83.0338 113.563 81.9152Z" fill="#263238"/>
<path d="M112.926 84.209C113.504 86.2006 114.348 88.1057 115.434 89.8729C114.975 90.1385 114.463 90.3013 113.935 90.3502C113.406 90.3991 112.873 90.3329 112.373 90.1561L112.926 84.209Z" fill="#A24E3F"/>
<path d="M115.023 78.9132C115.154 78.8925 115.274 78.8275 115.364 78.7292C115.451 78.6349 115.5 78.5109 115.5 78.3822C115.5 78.2535 115.451 78.1296 115.364 78.0353C114.781 77.5037 114.079 77.1195 113.317 76.915C112.555 76.7105 111.755 76.6917 110.984 76.86C110.875 76.9349 110.799 77.0479 110.77 77.1765C110.741 77.3051 110.762 77.4398 110.828 77.5539C110.872 77.6266 110.934 77.6862 111.009 77.7261C111.084 77.766 111.168 77.7848 111.253 77.7805C111.866 77.6634 112.498 77.6907 113.098 77.8604C113.698 78.03 114.251 78.3371 114.712 78.7575C114.794 78.8444 114.904 78.8995 115.023 78.9132Z" fill="#263238"/>
<path d="M85.1455 77.9928C84.8195 88.3437 84.4651 92.7474 89.0857 98.5247C96.0449 107.205 108.645 105.307 112.018 95.2254C115.052 86.1489 115.08 70.6863 105.541 65.6737C96.0024 60.6611 85.4431 67.6136 85.1455 77.9928Z" fill="#B97964"/>
<path d="M85.5992 97.5477C75.4084 95.806 78.3282 89.3916 78.3282 89.3916C68.2933 87.3667 76.0462 82.4674 76.0462 82.4674C67.6981 78.8708 76.0462 75.6423 76.0462 75.6423C67.9957 68.973 79.4762 66.6649 79.4762 66.6649C76.6415 56.2574 86.563 60.5337 86.563 60.5337C91.9489 51.5846 96.5978 60.1231 96.5978 60.1231C106.037 47.3792 108.333 58.1265 108.333 58.1265C117.986 55.5919 114.286 65.7304 114.286 65.7304C122.223 67.8544 115.987 71.8758 115.987 71.8758C119.049 75.7414 107.979 76.4069 107.979 76.4069C107.979 76.4069 113.252 84.9029 107.979 87.2393L94.571 97.5052C94.571 97.5052 88.3772 94.9847 85.5992 97.5477Z" fill="#263238"/>
<path d="M95.6199 89.1934C95.6199 89.1934 102.707 72.2015 97.1648 57.7018L101.842 56.1017C101.842 56.1017 107.951 77.1858 95.6199 89.1934Z" fill="#407BFF"/>
<path d="M102.692 87.3242C103.855 89.7597 104.308 90.8217 105.981 91.5722C106.497 91.8683 107.089 92.006 107.684 91.968C108.278 91.9301 108.848 91.7183 109.322 91.3589C109.797 90.9996 110.155 90.5086 110.352 89.9472C110.549 89.3859 110.577 88.779 110.431 88.2022C109.992 85.7667 108.121 82.1842 105.527 82.1134C104.92 82.1164 104.326 82.2821 103.805 82.5931C103.285 82.9042 102.857 83.3491 102.568 83.8816C102.278 84.414 102.137 85.0143 102.159 85.6199C102.181 86.2255 102.365 86.8141 102.692 87.3242Z" fill="#B97964"/>
<path d="M95.3646 122.696C95.3646 122.696 104.96 129.776 108.858 132.608L136.624 119.524C136.584 117.986 137.01 116.472 137.844 115.179C138.678 113.886 139.883 112.873 141.301 112.274L143.285 111.453L147.466 109.584C148.246 109.236 149.103 109.1 149.951 109.19C150.8 109.279 151.61 109.591 152.299 110.093C153.109 110.683 153.717 111.508 154.039 112.456C154.361 113.404 154.382 114.429 154.1 115.389C153.517 117.38 152.427 119.186 150.936 120.631C149.445 122.075 147.605 123.109 145.595 123.63L141.542 124.692C141.542 124.692 117.745 142.704 109.24 143.128C100.736 143.553 88.2778 135.213 88.2778 135.213L95.3646 122.696Z" fill="#B97964"/>
<path d="M72.2901 110.759C79.6178 110.759 87.81 115.318 100.637 123.673C98.7948 129.695 95.3685 135.113 90.7156 139.362C90.7156 139.362 83.6289 137.464 74.2177 128.614C62.8789 117.895 67.7971 110.773 72.2901 110.759Z" fill="#263238"/>
<path d="M211.474 131.97H142.024C141.44 131.98 140.86 131.865 140.323 131.634C139.787 131.402 139.306 131.06 138.912 130.629C138.518 130.198 138.22 129.688 138.038 129.133C137.856 128.578 137.794 127.991 137.857 127.411L143.087 67.6844C143.212 66.4495 143.785 65.3032 144.7 64.4628C145.614 63.6224 146.805 63.1464 148.048 63.1249H217.498C218.081 63.1153 218.66 63.2301 219.196 63.4615C219.732 63.6929 220.213 64.0357 220.605 64.4671C220.998 64.8985 221.295 65.4085 221.475 65.9633C221.655 66.518 221.715 67.1048 221.65 67.6844L216.42 127.411C216.296 128.643 215.724 129.788 214.813 130.628C213.901 131.468 212.714 131.945 211.474 131.97Z" fill="#407BFF"/>
<path opacity="0.4" d="M211.474 131.97H142.024C141.44 131.98 140.86 131.865 140.323 131.634C139.787 131.402 139.306 131.06 138.912 130.629C138.518 130.198 138.22 129.688 138.038 129.133C137.856 128.578 137.794 127.991 137.857 127.411L143.087 67.6844C143.212 66.4495 143.785 65.3032 144.7 64.4628C145.614 63.6224 146.805 63.1464 148.048 63.1249H217.498C218.081 63.1153 218.66 63.2301 219.196 63.4615C219.732 63.6929 220.213 64.0357 220.605 64.4671C220.998 64.8985 221.295 65.4085 221.475 65.9633C221.655 66.518 221.715 67.1048 221.65 67.6844L216.42 127.411C216.296 128.643 215.724 129.788 214.813 130.628C213.901 131.468 212.714 131.945 211.474 131.97Z" fill="white"/>
<path opacity="0.7" d="M211.729 129.138C212.199 129.13 212.649 128.95 212.994 128.631C213.339 128.312 213.555 127.878 213.6 127.411L218.83 67.6845C218.854 67.4649 218.831 67.2427 218.763 67.0327C218.694 66.8227 218.582 66.6295 218.433 66.4662C218.285 66.3028 218.103 66.1729 217.9 66.0851C217.697 65.9973 217.478 65.9536 217.257 65.957H147.807C147.335 65.9649 146.883 66.145 146.536 66.4633C146.188 66.7816 145.97 67.2161 145.921 67.6845L140.706 127.411C140.681 127.63 140.704 127.853 140.773 128.063C140.841 128.273 140.953 128.466 141.102 128.629C141.251 128.793 141.433 128.922 141.636 129.01C141.839 129.098 142.058 129.142 142.279 129.138H211.729Z" fill="white"/>
<path d="M163.468 94.0219L140.791 126.816V127.411C140.766 127.63 140.789 127.853 140.858 128.063C140.926 128.273 141.038 128.466 141.187 128.629C141.336 128.793 141.518 128.922 141.721 129.01C141.924 129.098 142.143 129.142 142.364 129.138H181.709L163.468 94.0219Z" fill="#407BFF"/>
<path opacity="0.3" d="M163.468 94.0219L140.791 126.816V127.411C140.766 127.63 140.789 127.853 140.858 128.063C140.926 128.273 141.038 128.466 141.187 128.629C141.336 128.793 141.518 128.922 141.721 129.01C141.924 129.098 142.143 129.142 142.364 129.138H181.709L163.468 94.0219Z" fill="white"/>
<path d="M213.798 125.131L194.792 89.0659L166.643 129.138H211.729C212.199 129.13 212.649 128.95 212.994 128.631C213.339 128.312 213.555 127.878 213.6 127.411L213.798 125.131Z" fill="#407BFF"/>
<path d="M187.45 82.6939C187.276 84.4198 186.475 86.022 185.197 87.1966C183.92 88.3712 182.255 89.0363 180.519 89.0658C179.702 89.0807 178.891 88.9215 178.14 88.5989C177.39 88.2763 176.716 87.7977 176.165 87.1949C175.614 86.592 175.198 85.8788 174.944 85.1027C174.69 84.3267 174.605 83.5055 174.694 82.6939C174.864 80.9654 175.664 79.3597 176.942 78.1822C178.22 77.0048 179.886 76.3376 181.625 76.3077C182.443 76.2926 183.255 76.4521 184.007 76.7755C184.759 77.099 185.433 77.579 185.984 78.1834C186.536 78.7878 186.951 79.5028 187.204 80.2806C187.457 81.0584 187.541 81.8812 187.45 82.6939Z" fill="#407BFF"/>
<path opacity="0.4" d="M187.45 82.6939C187.276 84.4198 186.475 86.022 185.197 87.1966C183.92 88.3712 182.255 89.0363 180.519 89.0658C179.702 89.0807 178.891 88.9215 178.14 88.5989C177.39 88.2763 176.716 87.7977 176.165 87.1949C175.614 86.592 175.198 85.8788 174.944 85.1027C174.69 84.3267 174.605 83.5055 174.694 82.6939C174.864 80.9654 175.664 79.3597 176.942 78.1822C178.22 77.0048 179.886 76.3376 181.625 76.3077C182.443 76.2926 183.255 76.4521 184.007 76.7755C184.759 77.099 185.433 77.579 185.984 78.1834C186.536 78.7878 186.951 79.5028 187.204 80.2806C187.457 81.0584 187.541 81.8812 187.45 82.6939Z" fill="white"/>
<path d="M14.1363 373.043L7.07788 393.943L17.8923 398.361L26.3538 379.075L14.1363 373.043Z" fill="#B97964"/>
<path d="M21.7758 397.836C21.7203 397.803 21.6752 397.755 21.6452 397.697C21.6152 397.64 21.6015 397.575 21.6057 397.511C21.6137 397.448 21.6413 397.39 21.6846 397.344C21.7279 397.298 21.7847 397.267 21.8467 397.256C22.0734 397.256 27.1759 396.066 29.0752 397.256C29.4343 397.475 29.6936 397.826 29.798 398.233C29.8774 398.459 29.8846 398.705 29.8186 398.936C29.7526 399.166 29.6167 399.371 29.4295 399.522C28.7066 400.031 27.02 399.819 25.4751 399.337C24.2013 398.944 22.9637 398.442 21.7758 397.836ZM22.853 397.737C25.0782 398.729 28.2247 399.677 29.0468 399.054C29.1602 398.969 29.3019 398.828 29.1885 398.389C29.1666 398.26 29.1138 398.139 29.0349 398.036C28.9559 397.932 28.853 397.849 28.735 397.794C28.5679 397.688 28.3865 397.607 28.1964 397.553C26.4197 397.275 24.6063 397.338 22.853 397.737Z" fill="#407BFF"/>
<path d="M21.6199 397.766C21.5925 397.718 21.5781 397.665 21.5781 397.61C21.5781 397.555 21.5925 397.502 21.6199 397.454C21.6199 397.313 23.0372 394.056 25.0357 393.206C25.3209 393.088 25.6268 393.026 25.9357 393.026C26.2447 393.026 26.5506 393.088 26.8357 393.206C27.6153 393.532 27.7428 394.028 27.672 394.367C27.5019 395.854 23.675 397.624 22.0026 397.822C21.9828 397.832 21.961 397.838 21.9388 397.838C21.9166 397.838 21.8948 397.832 21.875 397.822C21.8312 397.835 21.7848 397.837 21.7401 397.827C21.6955 397.817 21.6541 397.796 21.6199 397.766ZM26.4247 393.759C26.0587 393.624 25.6568 393.624 25.2908 393.759C24.0291 394.541 23.0393 395.693 22.4561 397.058C24.2845 396.619 26.8924 395.118 27.0767 394.226C27.0767 394.141 27.0767 393.914 26.5948 393.716H26.4247V393.759Z" fill="#407BFF"/>
<path d="M21.0388 395.698L7.46064 391.45C7.212 391.374 6.94476 391.384 6.70271 391.479C6.46066 391.575 6.25814 391.749 6.12833 391.974L0.260502 402.254C0.133653 402.471 0.0509761 402.71 0.0172415 402.959C-0.016493 403.207 -0.000621999 403.46 0.0639559 403.702C0.128534 403.944 0.240536 404.171 0.393476 404.37C0.546416 404.569 0.737264 404.735 0.955001 404.86C1.0708 404.931 1.19447 404.988 1.32351 405.03C6.24172 406.446 10.678 407.522 16.7726 409.419C23.9728 411.628 21.8751 411.926 30.2941 414.659C35.3682 416.301 38.0896 410.793 35.9635 409.844C26.4531 405.596 26.3539 402.254 23.6326 397.539C23.017 396.635 22.0964 395.981 21.0388 395.698Z" fill="#263238"/>
<path opacity="0.2" d="M10.7488 383.068L22.0876 388.788L26.3538 379.075L14.1362 373.043L10.7488 383.068Z" fill="#263238"/>
<path d="M62.0712 179.732C62.0712 179.732 46.8347 191.357 50.0946 227.776C50.4064 231.146 51.5119 234.672 51.5119 238.524C51.5119 241.087 50.8033 242.885 49.967 248.648C48.7481 257.031 46.5087 288.296 44.1417 292.36C41.7748 296.423 40.811 295.701 34.2203 306.916C27.1335 318.98 17.9208 340.135 10.7915 375.988C15.5518 379.344 20.9891 381.621 26.7225 382.657C26.7225 382.657 65.6571 321.316 73.9344 298.477C81.3471 278.044 90.1772 212.838 90.1772 212.838L90.8859 184.518L62.0712 179.732Z" fill="#407BFF"/>
<path opacity="0.1" d="M78.739 227.776H67.7121C67.7121 227.776 64.0837 262.44 76.0744 291.354C77.3217 286.71 78.5831 281.145 79.8162 275.127L84.5927 244.598C83.9124 239.444 83.3879 235.508 83.3029 235.253C83.062 234.446 78.739 227.776 78.739 227.776Z" fill="black"/>
<path d="M76.9248 381.454L76.9957 403.671L89.5392 402.835L91.4668 381.454H76.9248Z" fill="#B97964"/>
<path d="M90.9851 402.453C90.9225 402.445 90.8641 402.417 90.8183 402.374C90.7724 402.331 90.7415 402.274 90.73 402.212C90.7154 402.15 90.7213 402.084 90.7468 402.026C90.7724 401.967 90.8162 401.918 90.8717 401.886C91.0701 401.773 95.5065 399.054 97.7034 399.536C98.1128 399.627 98.4724 399.87 98.7097 400.215C98.8562 400.406 98.9414 400.637 98.9541 400.877C98.9667 401.117 98.9062 401.356 98.7805 401.561C97.6901 402.378 96.3416 402.775 94.982 402.679C93.6456 402.724 92.3079 402.648 90.9851 402.453ZM91.9773 402.014C94.4009 402.226 97.6467 402.085 98.2561 401.221C98.3412 401.107 98.412 400.923 98.1711 400.541C98.1053 400.43 98.0149 400.335 97.9068 400.264C97.7987 400.193 97.6758 400.147 97.5474 400.13C97.3548 400.102 97.159 400.102 96.9663 400.13C95.1962 400.427 93.5013 401.067 91.9773 402.014Z" fill="#407BFF"/>
<path d="M90.8151 402.453C90.7676 402.422 90.7285 402.38 90.7013 402.331C90.6741 402.281 90.6596 402.226 90.6592 402.169C90.6592 402.014 90.9001 398.488 92.5017 397.072C92.73 396.863 92.9985 396.702 93.2909 396.6C93.5833 396.497 93.8935 396.456 94.2025 396.477C95.053 396.477 95.3364 396.959 95.379 397.313C95.7049 398.729 92.686 401.688 91.1269 402.438C91.0855 402.452 91.0407 402.452 90.9994 402.438C90.9415 402.465 90.8763 402.47 90.8151 402.453ZM94.0183 397.072C93.6283 397.08 93.255 397.231 92.9695 397.497C92.0347 398.651 91.4802 400.065 91.382 401.546C92.9553 400.541 94.9254 398.261 94.812 397.383C94.812 397.298 94.7411 397.072 94.1884 397.044H94.0183V397.072Z" fill="#407BFF"/>
<path d="M89.5961 400.683L75.4227 401.192C75.1639 401.204 74.9167 401.303 74.7211 401.472C74.5256 401.642 74.3932 401.873 74.3455 402.127L72.1911 413.766C72.0954 414.26 72.2 414.772 72.4817 415.189C72.7634 415.606 73.1993 415.894 73.6935 415.99C73.8301 416.003 73.9679 416.003 74.1045 415.99C79.2212 415.706 83.7567 415.267 90.1347 415.055C97.6609 414.786 95.8041 415.749 104.634 415.565C109.978 415.437 110.729 409.349 108.461 409.136C98.0719 408.202 96.8813 405.115 92.7568 401.561C91.8486 400.887 90.7222 400.574 89.5961 400.683Z" fill="#263238"/>
<path opacity="0.2" d="M76.9673 392.951L90.4605 392.668L91.4668 381.454H76.9248L76.9673 392.951Z" fill="#263238"/>
<path d="M70.561 175.696C70.561 175.696 55.3529 195.817 66.6208 235.168L79.3769 292.643C79.3769 292.643 67.2728 318.782 73.7075 387.74C79.9445 388.616 86.2824 388.472 92.4732 387.316C92.4732 387.316 106.647 314.491 108.787 289.896C111.154 262.794 109.737 181.105 109.737 181.105L70.561 175.696Z" fill="#407BFF"/>
<path d="M79.7455 110.476C79.7455 110.476 77.3927 100.422 92.5016 104.812C107.611 109.201 106.335 117.796 106.335 117.796L79.7455 110.476Z" fill="#263238"/>
<path opacity="0.4" d="M79.7455 110.476C79.7455 110.476 77.3927 100.422 92.5016 104.812C107.611 109.201 106.335 117.796 106.335 117.796L79.7455 110.476Z" fill="black"/>
<path d="M117.22 135.624C117.22 139.149 115.803 144.247 114.385 149.953C113.733 152.658 113.138 155.476 112.741 158.336C110.601 173.912 109.907 190.323 109.907 190.323C101.566 192.141 92.9398 192.223 84.566 190.564C76.1922 188.905 68.2501 185.54 61.2349 180.68C61.2349 180.68 67.1736 175.654 65.9546 140.835C65.4019 125.145 59.7325 106.497 85.6842 109.428C107.596 111.906 114.967 118.703 116.738 129.337C116.738 129.464 116.738 129.606 116.738 129.747L116.866 130.739C117.08 132.359 117.198 133.99 117.22 135.624Z" fill="#263238"/>
<path opacity="0.4" d="M117.22 135.624C117.22 139.149 115.803 144.247 114.385 149.953C108.461 142.874 102.522 129.492 102.522 129.492L107.412 122.299L116.03 126.306C116.327 127.301 116.564 128.313 116.738 129.337C116.738 129.464 116.738 129.606 116.738 129.747L116.866 130.738C117.08 132.358 117.198 133.99 117.22 135.624Z" fill="black"/>
<path d="M126.249 129.478C126.249 129.478 134.753 137.861 138.112 141.231L167.508 132.424C167.7 130.905 168.343 129.479 169.354 128.329C170.364 127.178 171.695 126.355 173.177 125.967L175.246 125.429L179.669 124.211C180.492 123.988 181.36 123.985 182.186 124.201C183.011 124.417 183.766 124.845 184.374 125.443C185.087 126.144 185.565 127.049 185.742 128.033C185.92 129.016 185.789 130.031 185.366 130.937C184.491 132.819 183.144 134.443 181.455 135.651C179.766 136.859 177.794 137.611 175.728 137.833L171.561 138.272C171.561 138.272 145.326 152.587 136.879 151.794C128.431 151.001 117.333 140.849 117.333 140.849L126.249 129.478Z" fill="#B97964"/>
<path d="M105.13 114.228C112.387 115.29 119.8 121.053 131.309 131.22C128.582 136.907 124.378 141.758 119.134 145.267C119.134 145.267 112.43 142.335 104.436 132.183C94.7694 119.892 100.736 113.577 105.13 114.228Z" fill="#263238"/>
</svg>
